<svg id="svg" version="1.1" width="400" height="162.27758007117438" viewBox="0 0 400 162.27758007117438" xmlns="http://www.w3.org/2000/svg" xmlns:xlink="http://www.w3.org/1999/xlink" ><g id="svgg"><path id="path0" d="M122.667 32.750 C 122.667 32.951,122.407 33.000,121.328 33.000 C 120.292 33.000,119.968 33.056,119.894 33.250 C 119.831 33.413,119.571 33.500,119.144 33.500 C 118.716 33.500,118.456 33.587,118.394 33.750 C 118.331 33.913,118.072 34.000,117.649 34.000 C 117.292 34.000,117.000 34.075,117.000 34.167 C 117.000 34.258,116.855 34.333,116.679 34.333 C 116.502 34.333,116.245 34.446,116.107 34.583 C 115.970 34.721,115.737 34.833,115.590 34.833 C 115.443 34.833,115.280 34.946,115.227 35.083 C 115.174 35.221,115.027 35.333,114.899 35.333 C 114.771 35.333,114.667 35.446,114.667 35.583 C 114.667 35.750,114.500 35.833,114.167 35.833 C 113.833 35.833,113.667 35.917,113.667 36.083 C 113.667 36.221,113.554 36.333,113.417 36.333 C 113.279 36.333,113.167 36.446,113.167 36.583 C 113.167 36.739,113.009 36.833,112.750 36.833 C 112.491 36.833,112.333 36.928,112.333 37.083 C 112.333 37.221,112.248 37.333,112.144 37.333 C 112.040 37.333,111.781 37.521,111.569 37.750 C 111.356 37.979,111.104 38.167,111.008 38.167 C 110.912 38.167,110.833 38.279,110.833 38.417 C 110.833 38.554,110.721 38.667,110.583 38.667 C 110.446 38.667,110.333 38.745,110.333 38.841 C 110.333 38.937,110.156 39.181,109.940 39.383 C 109.723 39.585,109.493 39.919,109.429 40.125 C 109.364 40.331,109.241 40.500,109.155 40.500 C 109.070 40.500,109.000 40.612,109.000 40.750 C 109.000 40.887,108.888 41.000,108.750 41.000 C 108.583 41.000,108.500 41.167,108.500 41.500 C 108.500 41.833,108.417 42.000,108.250 42.000 C 108.112 42.000,108.000 42.104,108.000 42.232 C 108.000 42.360,107.888 42.508,107.750 42.560 C 107.612 42.613,107.500 42.811,107.500 43.000 C 107.500 43.189,107.388 43.387,107.250 43.440 C 107.112 43.492,106.998 43.696,106.995 43.893 C 106.992 44.089,106.879 44.396,106.745 44.574 C 106.610 44.751,106.500 45.100,106.500 45.347 C 106.500 45.595,106.388 45.841,106.250 45.894 C 106.093 45.954,106.000 46.209,106.000 46.578 C 106.000 46.902,105.925 47.167,105.833 47.167 C 105.738 47.167,105.667 47.667,105.667 48.333 C 105.667 49.259,105.615 49.500,105.417 49.500 C 105.222 49.500,105.167 49.722,105.167 50.500 C 105.167 51.278,105.111 51.500,104.917 51.500 C 104.725 51.500,104.667 51.714,104.667 52.422 C 104.667 53.088,104.597 53.370,104.417 53.440 C 104.231 53.511,104.167 53.806,104.167 54.583 C 104.167 55.361,104.102 55.656,103.917 55.727 C 103.737 55.796,103.667 56.077,103.667 56.727 C 103.667 57.377,103.596 57.658,103.417 57.727 C 103.241 57.794,103.167 58.069,103.167 58.652 C 103.167 59.107,103.092 59.527,103.000 59.583 C 102.908 59.640,102.833 60.169,102.833 60.760 C 102.833 61.603,102.780 61.833,102.583 61.833 C 102.389 61.833,102.333 62.056,102.333 62.833 C 102.333 63.611,102.278 63.833,102.083 63.833 C 101.892 63.833,101.833 64.044,101.833 64.732 C 101.833 65.377,101.763 65.658,101.583 65.727 C 101.397 65.798,101.333 66.096,101.333 66.894 C 101.333 67.692,101.270 67.989,101.083 68.060 C 100.904 68.129,100.833 68.410,100.833 69.060 C 100.833 69.710,100.763 69.991,100.583 70.060 C 100.410 70.127,100.332 70.402,100.328 70.953 C 100.325 71.391,100.213 71.896,100.078 72.074 C 99.934 72.264,99.833 72.762,99.833 73.282 C 99.833 73.769,99.758 74.167,99.667 74.167 C 99.574 74.167,99.500 74.611,99.500 75.167 C 99.500 75.944,99.444 76.167,99.250 76.167 C 99.059 76.167,99.000 76.378,99.000 77.066 C 99.000 77.711,98.929 77.991,98.750 78.060 C 98.564 78.132,98.500 78.429,98.500 79.227 C 98.500 80.025,98.436 80.322,98.250 80.394 C 98.070 80.463,98.000 80.744,98.000 81.394 C 98.000 82.043,97.930 82.325,97.750 82.394 C 97.577 82.460,97.498 82.735,97.495 83.286 C 97.492 83.725,97.379 84.229,97.245 84.407 C 97.101 84.597,97.000 85.095,97.000 85.615 C 97.000 86.102,96.925 86.500,96.833 86.500 C 96.741 86.500,96.667 86.944,96.667 87.500 C 96.667 88.278,96.611 88.500,96.417 88.500 C 96.225 88.500,96.167 88.711,96.167 89.399 C 96.167 90.044,96.096 90.325,95.917 90.394 C 95.730 90.465,95.667 90.762,95.667 91.560 C 95.667 92.358,95.603 92.655,95.417 92.727 C 95.236 92.796,95.167 93.079,95.167 93.745 C 95.167 94.453,95.109 94.667,94.917 94.667 C 94.727 94.667,94.667 94.872,94.667 95.512 C 94.667 96.041,94.573 96.451,94.417 96.607 C 94.252 96.772,94.167 97.187,94.167 97.827 C 94.167 98.536,94.099 98.824,93.917 98.894 C 93.736 98.963,93.667 99.246,93.667 99.911 C 93.667 100.418,93.592 100.833,93.500 100.833 C 93.408 100.833,93.333 101.238,93.333 101.732 C 93.333 102.377,93.263 102.658,93.083 102.727 C 92.897 102.798,92.833 103.096,92.833 103.894 C 92.833 104.692,92.770 104.989,92.583 105.060 C 92.403 105.130,92.333 105.412,92.333 106.078 C 92.333 106.786,92.275 107.000,92.083 107.000 C 91.894 107.000,91.833 107.205,91.833 107.845 C 91.833 108.374,91.740 108.784,91.583 108.940 C 91.418 109.105,91.333 109.521,91.333 110.161 C 91.333 110.869,91.266 111.157,91.083 111.227 C 90.903 111.296,90.833 111.579,90.833 112.245 C 90.833 112.752,90.758 113.167,90.667 113.167 C 90.575 113.167,90.500 113.571,90.500 114.066 C 90.500 114.711,90.429 114.991,90.250 115.060 C 90.064 115.132,90.000 115.429,90.000 116.227 C 90.000 117.025,89.936 117.322,89.750 117.394 C 89.569 117.463,89.500 117.746,89.500 118.411 C 89.500 119.120,89.442 119.333,89.250 119.333 C 89.059 119.333,89.000 119.544,89.000 120.232 C 89.000 120.877,88.929 121.158,88.750 121.227 C 88.564 121.298,88.500 121.596,88.500 122.394 C 88.500 123.192,88.436 123.489,88.250 123.560 C 88.070 123.629,88.000 123.910,88.000 124.560 C 88.000 125.223,87.931 125.491,87.742 125.563 C 87.539 125.641,87.495 125.886,87.534 126.706 L 87.583 127.750 102.042 127.793 C 114.825 127.830,116.500 127.806,116.500 127.584 C 116.500 127.380,116.766 127.333,117.917 127.333 C 119.065 127.333,119.333 127.286,119.333 127.083 C 119.333 126.891,119.546 126.833,120.250 126.833 C 120.954 126.833,121.167 126.775,121.167 126.583 C 121.167 126.417,121.333 126.333,121.667 126.333 C 122.000 126.333,122.167 126.250,122.167 126.083 C 122.167 125.903,122.352 125.833,122.833 125.833 C 123.200 125.833,123.500 125.764,123.500 125.680 C 123.500 125.596,123.725 125.477,124.000 125.417 C 124.275 125.356,124.500 125.238,124.500 125.153 C 124.500 125.069,124.612 125.000,124.750 125.000 C 124.888 125.000,125.000 124.888,125.000 124.750 C 125.000 124.594,125.158 124.500,125.422 124.500 C 125.654 124.500,125.887 124.388,125.940 124.250 C 125.992 124.112,126.140 124.000,126.268 124.000 C 126.396 124.000,126.500 123.888,126.500 123.750 C 126.500 123.612,126.612 123.500,126.750 123.500 C 126.888 123.500,127.000 123.388,127.000 123.250 C 127.000 123.094,127.157 123.000,127.417 123.000 C 127.676 123.000,127.833 122.906,127.833 122.750 C 127.833 122.612,127.914 122.500,128.013 122.500 C 128.322 122.500,129.644 121.066,129.759 120.605 C 129.820 120.364,129.936 120.167,130.018 120.167 C 130.100 120.167,130.167 120.054,130.167 119.917 C 130.167 119.779,130.241 119.667,130.331 119.667 C 130.657 119.667,131.167 119.085,131.167 118.713 C 131.167 118.487,131.268 118.333,131.417 118.333 C 131.554 118.333,131.667 118.229,131.667 118.101 C 131.667 117.973,131.779 117.826,131.917 117.773 C 132.054 117.720,132.167 117.495,132.167 117.273 C 132.167 117.051,132.279 116.826,132.417 116.773 C 132.554 116.720,132.667 116.519,132.667 116.327 C 132.667 116.134,132.779 115.864,132.917 115.726 C 133.054 115.589,133.167 115.257,133.167 114.988 C 133.167 114.720,133.242 114.500,133.333 114.500 C 133.425 114.500,133.500 114.162,133.500 113.750 C 133.500 113.194,133.565 113.000,133.750 113.000 C 133.948 113.000,134.000 112.759,134.000 111.833 C 134.000 110.907,134.052 110.667,134.250 110.667 C 134.442 110.667,134.500 110.454,134.500 109.750 C 134.500 109.046,134.558 108.833,134.750 108.833 C 134.944 108.833,135.000 108.613,135.000 107.851 C 135.000 107.132,135.067 106.843,135.250 106.773 C 135.437 106.701,135.500 106.402,135.500 105.589 C 135.500 104.732,135.553 104.500,135.750 104.500 C 135.941 104.500,136.000 104.289,136.000 103.601 C 136.000 102.956,136.071 102.675,136.250 102.606 C 136.431 102.537,136.500 102.254,136.500 101.589 C 136.500 101.082,136.575 100.667,136.667 100.667 C 136.762 100.667,136.833 100.167,136.833 99.500 C 136.833 98.574,136.885 98.333,137.083 98.333 C 137.275 98.333,137.333 98.120,137.333 97.417 C 137.333 96.713,137.391 96.500,137.583 96.500 C 137.778 96.500,137.833 96.278,137.833 95.500 C 137.833 94.722,137.889 94.500,138.083 94.500 C 138.282 94.500,138.333 94.259,138.333 93.333 C 138.333 92.407,138.385 92.167,138.583 92.167 C 138.775 92.167,138.833 91.956,138.833 91.268 C 138.833 90.623,138.904 90.342,139.083 90.273 C 139.264 90.204,139.333 89.921,139.333 89.255 C 139.333 88.748,139.408 88.333,139.500 88.333 C 139.595 88.333,139.667 87.833,139.667 87.167 C 139.667 86.241,139.718 86.000,139.917 86.000 C 140.109 86.000,140.167 85.787,140.167 85.083 C 140.167 84.380,140.225 84.167,140.417 84.167 C 140.611 84.167,140.667 83.944,140.667 83.167 C 140.667 82.389,140.722 82.167,140.917 82.167 C 141.115 82.167,141.167 81.926,141.167 81.000 C 141.167 80.074,141.218 79.833,141.417 79.833 C 141.608 79.833,141.667 79.622,141.667 78.934 C 141.667 78.289,141.737 78.009,141.917 77.940 C 142.094 77.872,142.167 77.596,142.167 76.993 C 142.167 76.460,142.260 76.050,142.417 75.893 C 142.583 75.727,142.667 75.311,142.667 74.655 C 142.667 74.107,142.741 73.667,142.833 73.667 C 142.925 73.667,143.000 73.254,143.000 72.750 C 143.000 72.046,143.058 71.833,143.250 71.833 C 143.444 71.833,143.500 71.611,143.500 70.833 C 143.500 70.056,143.556 69.833,143.750 69.833 C 143.948 69.833,144.000 69.593,144.000 68.667 C 144.000 67.741,144.052 67.500,144.250 67.500 C 144.441 67.500,144.500 67.289,144.500 66.601 C 144.500 65.956,144.571 65.675,144.750 65.606 C 144.927 65.538,145.000 65.262,145.000 64.660 C 145.000 64.126,145.093 63.716,145.250 63.560 C 145.416 63.394,145.500 62.978,145.500 62.321 C 145.500 61.774,145.574 61.333,145.667 61.333 C 145.758 61.333,145.833 60.921,145.833 60.417 C 145.833 59.713,145.891 59.500,146.083 59.500 C 146.278 59.500,146.333 59.278,146.333 58.500 C 146.333 57.722,146.389 57.500,146.583 57.500 C 146.782 57.500,146.833 57.259,146.833 56.333 C 146.833 55.407,146.885 55.167,147.083 55.167 C 147.275 55.167,147.333 54.954,147.333 54.250 C 147.333 53.546,147.391 53.333,147.583 53.333 C 147.775 53.333,147.833 53.123,147.833 52.437 C 147.833 51.844,147.918 51.471,148.083 51.333 C 148.258 51.189,148.333 50.804,148.333 50.063 C 148.333 49.229,148.387 49.000,148.583 49.000 C 148.775 49.000,148.833 48.787,148.833 48.083 C 148.833 47.579,148.908 47.167,149.000 47.167 C 149.092 47.167,149.167 46.762,149.167 46.268 C 149.167 45.623,149.237 45.342,149.417 45.273 C 149.606 45.200,149.667 44.893,149.667 44.005 C 149.667 43.075,149.718 42.833,149.917 42.833 C 150.109 42.833,150.167 42.620,150.167 41.917 C 150.167 41.213,150.225 41.000,150.417 41.000 C 150.608 41.000,150.667 40.789,150.667 40.104 C 150.667 39.510,150.751 39.137,150.917 39.000 C 151.091 38.855,151.167 38.471,151.167 37.730 C 151.167 36.896,151.221 36.667,151.417 36.667 C 151.609 36.667,151.667 36.454,151.667 35.750 C 151.667 35.246,151.742 34.833,151.833 34.833 C 151.929 34.833,152.000 34.333,152.000 33.667 L 152.000 32.500 137.333 32.500 C 124.407 32.500,122.667 32.530,122.667 32.750 M135.083 64.390 C 136.981 65.468,138.027 67.157,138.039 69.165 C 138.046 70.269,137.494 72.902,136.388 77.042 C 135.803 79.232,134.530 81.272,133.102 82.308 C 131.104 83.758,130.533 83.826,120.379 83.830 L 112.174 83.833 111.933 84.208 C 111.800 84.415,111.641 84.883,111.579 85.250 C 111.516 85.617,111.369 86.292,111.251 86.750 C 111.132 87.208,110.906 88.183,110.747 88.917 C 109.876 92.947,106.666 96.000,102.888 96.392 C 101.859 96.499,101.593 96.294,101.812 95.566 C 101.892 95.301,102.085 94.521,102.241 93.833 C 102.397 93.146,102.629 92.133,102.757 91.583 C 102.884 91.033,103.105 90.058,103.247 89.417 C 103.390 88.775,103.575 87.987,103.659 87.667 C 103.744 87.346,103.927 86.558,104.066 85.917 C 104.484 83.995,105.211 80.830,105.578 79.333 C 105.702 78.829,105.928 77.854,106.081 77.167 C 106.233 76.479,106.462 75.467,106.590 74.917 C 106.878 73.678,107.288 71.853,107.528 70.750 C 107.627 70.292,107.779 69.692,107.866 69.417 C 107.952 69.142,108.086 68.579,108.162 68.167 C 108.464 66.545,108.858 64.930,109.084 64.388 L 109.322 63.819 121.786 63.868 L 134.250 63.917 135.083 64.390 M114.817 71.625 C 114.722 71.877,114.573 72.383,114.487 72.750 C 114.402 73.117,114.190 74.017,114.017 74.750 C 113.567 76.658,112.901 76.500,121.405 76.500 C 129.861 76.500,129.215 76.632,129.589 74.833 C 129.984 72.933,130.118 72.300,130.252 71.708 L 130.375 71.167 122.683 71.167 L 114.992 71.167 114.817 71.625 " stroke="none" fill="#f4742c" fill-rule="evenodd"></path><path id="path1" d="M165.440 47.417 C 165.370 47.597,165.088 47.667,164.422 47.667 C 163.714 47.667,163.500 47.725,163.500 47.917 C 163.500 48.098,163.314 48.167,162.828 48.167 C 162.385 48.167,162.124 48.252,162.060 48.417 C 162.008 48.554,161.785 48.667,161.566 48.667 C 161.322 48.667,161.167 48.764,161.167 48.917 C 161.167 49.083,161.000 49.167,160.667 49.167 C 160.392 49.167,160.167 49.242,160.167 49.333 C 160.167 49.425,159.977 49.500,159.745 49.500 C 159.513 49.500,159.282 49.606,159.233 49.735 C 159.183 49.864,158.960 50.016,158.738 50.071 C 158.515 50.127,158.333 50.247,158.333 50.337 C 158.333 50.426,158.221 50.500,158.083 50.500 C 157.946 50.500,157.833 50.612,157.833 50.750 C 157.833 50.887,157.721 51.000,157.583 51.000 C 157.446 51.000,157.333 51.112,157.333 51.250 C 157.333 51.395,157.182 51.500,156.975 51.500 C 156.759 51.500,156.263 51.865,155.729 52.417 C 155.240 52.921,154.764 53.333,154.670 53.333 C 154.577 53.333,154.497 53.427,154.493 53.542 C 154.489 53.656,154.264 53.934,153.993 54.159 C 153.709 54.395,153.500 54.730,153.500 54.951 C 153.500 55.161,153.418 55.333,153.318 55.333 C 153.057 55.333,152.512 56.032,152.506 56.375 C 152.502 56.535,152.425 56.667,152.333 56.667 C 152.242 56.667,152.167 56.771,152.167 56.899 C 152.167 57.027,152.054 57.174,151.917 57.227 C 151.779 57.280,151.667 57.513,151.667 57.745 C 151.667 58.009,151.573 58.167,151.417 58.167 C 151.236 58.167,151.167 58.352,151.167 58.833 C 151.167 59.315,151.097 59.500,150.917 59.500 C 150.750 59.500,150.667 59.667,150.667 60.000 C 150.667 60.333,150.583 60.500,150.417 60.500 C 150.235 60.500,150.167 60.687,150.167 61.179 C 150.167 61.560,150.057 61.967,149.917 62.107 C 149.770 62.254,149.667 62.661,149.667 63.095 C 149.667 63.501,149.592 63.833,149.500 63.833 C 149.405 63.833,149.333 64.333,149.333 65.000 C 149.333 65.926,149.282 66.167,149.083 66.167 C 148.892 66.167,148.833 66.378,148.833 67.066 C 148.833 67.711,148.763 67.991,148.583 68.060 C 148.404 68.129,148.333 68.410,148.333 69.060 C 148.333 69.710,148.263 69.991,148.083 70.060 C 147.896 70.132,147.833 70.431,147.833 71.245 C 147.833 72.101,147.780 72.333,147.583 72.333 C 147.391 72.333,147.333 72.547,147.333 73.255 C 147.333 73.921,147.264 74.204,147.083 74.273 C 146.908 74.341,146.833 74.615,146.833 75.196 C 146.833 75.710,146.738 76.119,146.583 76.274 C 146.417 76.440,146.333 76.856,146.333 77.512 C 146.333 78.060,146.259 78.500,146.167 78.500 C 146.075 78.500,146.000 78.904,146.000 79.399 C 146.000 80.044,145.929 80.325,145.750 80.394 C 145.569 80.463,145.500 80.746,145.500 81.411 C 145.500 82.120,145.442 82.333,145.250 82.333 C 145.052 82.333,145.000 82.574,145.000 83.500 C 145.000 84.426,144.948 84.667,144.750 84.667 C 144.559 84.667,144.500 84.878,144.500 85.566 C 144.500 86.211,144.429 86.491,144.250 86.560 C 144.073 86.628,144.000 86.904,144.000 87.507 C 144.000 88.040,143.907 88.450,143.750 88.607 C 143.584 88.773,143.500 89.189,143.500 89.845 C 143.500 90.393,143.426 90.833,143.333 90.833 C 143.242 90.833,143.167 91.238,143.167 91.732 C 143.167 92.377,143.096 92.658,142.917 92.727 C 142.736 92.796,142.667 93.079,142.667 93.745 C 142.667 94.453,142.609 94.667,142.417 94.667 C 142.218 94.667,142.167 94.907,142.167 95.833 C 142.167 96.759,142.115 97.000,141.917 97.000 C 141.725 97.000,141.667 97.211,141.667 97.899 C 141.667 98.544,141.596 98.825,141.417 98.894 C 141.237 98.963,141.167 99.244,141.167 99.894 C 141.167 100.543,141.096 100.825,140.917 100.894 C 140.730 100.965,140.667 101.262,140.667 102.060 C 140.667 102.858,140.603 103.155,140.417 103.227 C 140.241 103.294,140.167 103.569,140.167 104.152 C 140.167 104.607,140.092 105.027,140.000 105.083 C 139.908 105.140,139.833 105.594,139.833 106.093 C 139.833 106.788,139.775 107.000,139.583 107.000 C 139.385 107.000,139.333 107.241,139.333 108.167 C 139.333 109.093,139.282 109.333,139.083 109.333 C 138.892 109.333,138.833 109.544,138.833 110.232 C 138.833 110.877,138.763 111.158,138.583 111.227 C 138.403 111.296,138.333 111.579,138.333 112.245 L 138.333 113.167 153.672 113.167 C 167.152 113.167,169.022 113.136,169.106 112.917 C 169.175 112.737,169.456 112.667,170.101 112.667 C 170.789 112.667,171.000 112.608,171.000 112.417 C 171.000 112.231,171.194 112.167,171.750 112.167 C 172.306 112.167,172.500 112.102,172.500 111.917 C 172.500 111.736,172.685 111.667,173.167 111.667 C 173.648 111.667,173.833 111.597,173.833 111.417 C 173.833 111.250,174.000 111.167,174.333 111.167 C 174.667 111.167,174.833 111.083,174.833 110.917 C 174.833 110.779,174.946 110.667,175.083 110.667 C 175.221 110.667,175.333 110.554,175.333 110.417 C 175.333 110.259,175.492 110.167,175.762 110.167 C 176.201 110.167,176.667 109.830,176.667 109.512 C 176.667 109.414,176.857 109.333,177.089 109.333 C 177.321 109.333,177.554 109.221,177.606 109.083 C 177.659 108.946,177.807 108.833,177.934 108.833 C 178.062 108.833,178.167 108.721,178.167 108.583 C 178.167 108.446,178.279 108.333,178.417 108.333 C 178.554 108.333,178.667 108.221,178.667 108.083 C 178.667 107.946,178.779 107.833,178.917 107.833 C 179.054 107.833,179.167 107.721,179.167 107.583 C 179.167 107.446,179.247 107.333,179.345 107.333 C 179.576 107.333,180.000 106.909,180.000 106.679 C 180.000 106.580,180.112 106.500,180.250 106.500 C 180.387 106.500,180.500 106.388,180.500 106.250 C 180.500 106.112,180.612 106.000,180.750 106.000 C 180.917 106.000,181.000 105.833,181.000 105.500 C 181.000 105.167,181.083 105.000,181.250 105.000 C 181.387 105.000,181.500 104.888,181.500 104.750 C 181.500 104.612,181.612 104.500,181.750 104.500 C 181.887 104.500,182.000 104.388,182.000 104.250 C 182.000 104.112,182.074 104.000,182.163 104.000 C 182.253 104.000,182.373 103.818,182.429 103.595 C 182.484 103.373,182.636 103.150,182.765 103.101 C 182.894 103.051,183.000 102.821,183.000 102.589 C 183.000 102.357,183.075 102.167,183.167 102.167 C 183.258 102.167,183.333 101.942,183.333 101.667 C 183.333 101.333,183.417 101.167,183.583 101.167 C 183.736 101.167,183.833 101.011,183.833 100.768 C 183.833 100.548,183.946 100.326,184.083 100.273 C 184.247 100.210,184.333 99.951,184.333 99.523 C 184.333 99.095,184.420 98.836,184.583 98.773 C 184.760 98.705,184.833 98.430,184.833 97.833 C 184.833 97.237,184.907 96.961,185.083 96.894 C 185.269 96.822,185.333 96.528,185.333 95.750 C 185.333 94.972,185.398 94.678,185.583 94.606 C 185.764 94.537,185.833 94.254,185.833 93.589 C 185.833 93.082,185.908 92.667,186.000 92.667 C 186.092 92.667,186.167 92.262,186.167 91.768 C 186.167 91.123,186.237 90.842,186.417 90.773 C 186.603 90.702,186.667 90.404,186.667 89.606 C 186.667 88.808,186.730 88.511,186.917 88.440 C 187.097 88.370,187.167 88.088,187.167 87.422 C 187.167 86.714,187.225 86.500,187.417 86.500 C 187.608 86.500,187.667 86.289,187.667 85.601 C 187.667 84.956,187.737 84.675,187.917 84.606 C 188.103 84.535,188.167 84.238,188.167 83.440 C 188.167 82.642,188.230 82.345,188.417 82.273 C 188.596 82.204,188.667 81.923,188.667 81.273 C 188.667 80.623,188.737 80.342,188.917 80.273 C 189.093 80.206,189.167 79.931,189.167 79.348 C 189.167 78.893,189.242 78.473,189.333 78.417 C 189.425 78.360,189.500 77.839,189.500 77.258 C 189.500 76.473,189.564 76.178,189.750 76.106 C 189.931 76.037,190.000 75.754,190.000 75.089 C 190.000 74.380,190.058 74.167,190.250 74.167 C 190.441 74.167,190.500 73.956,190.500 73.268 C 190.500 72.623,190.571 72.342,190.750 72.273 C 190.936 72.202,191.000 71.904,191.000 71.106 C 191.000 70.308,191.064 70.011,191.250 69.940 C 191.430 69.871,191.500 69.590,191.500 68.940 C 191.500 68.290,191.570 68.009,191.750 67.940 C 191.926 67.872,192.000 67.597,192.000 67.005 C 192.000 66.544,192.075 66.167,192.167 66.167 C 192.262 66.167,192.333 65.673,192.333 65.018 C 192.333 64.150,192.395 63.845,192.583 63.773 C 192.764 63.704,192.833 63.421,192.833 62.755 C 192.833 62.047,192.891 61.833,193.083 61.833 C 193.275 61.833,193.333 61.622,193.333 60.934 C 193.333 60.289,193.404 60.009,193.583 59.940 C 193.770 59.868,193.833 59.571,193.833 58.773 C 193.833 57.975,193.897 57.678,194.083 57.606 C 194.264 57.537,194.333 57.254,194.333 56.589 C 194.333 55.880,194.391 55.667,194.583 55.667 C 194.775 55.667,194.833 55.455,194.833 54.764 C 194.833 54.214,194.911 53.835,195.032 53.795 C 195.149 53.756,195.259 53.271,195.301 52.614 C 195.340 52.001,195.438 51.500,195.519 51.500 C 195.600 51.500,195.667 51.050,195.667 50.500 C 195.667 49.722,195.722 49.500,195.917 49.500 C 196.115 49.500,196.167 49.259,196.167 48.333 L 196.167 47.167 180.851 47.167 C 167.391 47.167,165.524 47.197,165.440 47.417 M181.580 63.788 C 181.945 63.895,182.270 64.061,182.303 64.158 C 182.335 64.254,182.499 64.333,182.667 64.333 C 184.020 64.333,185.951 68.185,185.524 70.033 C 185.203 71.425,185.649 71.333,179.167 71.333 C 172.633 71.333,173.069 71.239,172.827 72.700 C 172.747 73.186,172.568 74.033,172.429 74.583 C 172.291 75.133,172.095 75.958,171.995 76.417 C 171.894 76.875,171.743 77.479,171.658 77.758 C 171.572 78.037,171.454 78.620,171.395 79.054 C 171.335 79.488,171.222 79.882,171.143 79.931 C 171.065 79.980,171.000 80.296,170.999 80.635 C 170.998 80.973,170.886 81.465,170.749 81.727 C 170.612 81.990,170.500 82.461,170.500 82.774 C 170.500 83.088,170.387 83.613,170.250 83.942 C 170.112 84.271,169.997 84.813,169.994 85.145 C 169.991 85.478,169.881 85.938,169.750 86.167 C 169.619 86.396,169.509 86.818,169.506 87.105 C 169.503 87.391,169.387 87.895,169.250 88.224 C 169.112 88.553,169.000 89.083,169.000 89.401 C 169.000 89.720,168.925 90.027,168.833 90.083 C 168.742 90.140,168.667 90.299,168.667 90.436 C 168.667 90.816,168.013 92.167,167.829 92.167 C 167.740 92.167,167.667 92.274,167.667 92.405 C 167.667 92.865,164.847 95.500,164.354 95.500 C 164.266 95.500,164.169 95.556,164.139 95.625 C 163.941 96.070,160.692 96.959,159.947 96.773 C 159.487 96.657,159.300 95.976,159.667 95.750 C 159.758 95.693,159.833 95.346,159.833 94.979 C 159.833 94.612,159.906 94.176,159.994 94.011 C 160.083 93.845,160.229 93.306,160.319 92.813 C 160.673 90.880,160.851 90.070,160.993 89.750 C 161.074 89.567,161.184 89.045,161.238 88.590 C 161.292 88.135,161.411 87.689,161.502 87.598 C 161.592 87.508,161.669 87.130,161.673 86.758 C 161.676 86.387,161.786 85.896,161.917 85.667 C 162.048 85.438,162.160 84.950,162.167 84.583 C 162.173 84.217,162.286 83.729,162.417 83.500 C 162.548 83.271,162.658 82.835,162.661 82.531 C 162.664 82.227,162.739 81.843,162.828 81.677 C 162.916 81.512,163.063 80.973,163.154 80.480 C 163.569 78.234,163.716 77.572,163.835 77.417 C 163.905 77.325,164.017 76.837,164.083 76.333 C 164.150 75.829,164.260 75.342,164.329 75.250 C 164.398 75.158,164.499 74.682,164.555 74.191 C 164.610 73.700,164.723 73.212,164.806 73.107 C 164.889 73.002,164.994 72.566,165.040 72.137 L 165.123 71.358 161.837 71.304 C 159.756 71.270,158.465 71.182,158.317 71.065 C 158.188 70.963,157.877 70.830,157.625 70.770 C 157.373 70.710,157.167 70.587,157.167 70.497 C 157.167 70.407,157.075 70.333,156.962 70.333 C 156.745 70.333,155.501 69.011,155.500 68.780 C 155.500 68.704,155.387 68.530,155.250 68.393 C 155.112 68.255,155.000 67.976,155.000 67.771 C 155.000 67.567,154.918 67.318,154.819 67.219 C 154.504 66.904,154.596 64.188,154.934 63.814 C 155.285 63.427,180.263 63.402,181.580 63.788 " stroke="none" fill="#24b44c" fill-rule="evenodd"></path><path id="path2" d="M67.667 63.992 C 65.885 64.264,64.180 65.172,62.785 66.590 C 61.248 68.153,60.833 69.016,60.106 72.167 C 59.968 72.762,59.742 73.737,59.603 74.333 C 58.961 77.080,58.828 77.658,58.585 78.750 C 58.108 80.890,58.028 81.243,57.769 82.333 C 57.627 82.929,57.392 83.942,57.247 84.583 C 56.890 86.161,56.523 87.728,56.254 88.833 C 56.130 89.337,55.905 90.313,55.753 91.000 C 55.220 93.406,54.980 94.421,54.824 94.928 C 54.459 96.116,54.571 96.333,55.547 96.333 C 58.175 96.333,61.554 93.946,62.743 91.250 C 63.222 90.165,63.666 88.515,64.359 85.250 C 64.456 84.792,64.592 84.304,64.661 84.167 C 64.768 83.953,65.755 83.903,71.435 83.824 C 78.438 83.726,78.836 83.684,80.410 82.894 C 82.397 81.896,84.649 79.463,84.942 77.999 C 84.998 77.721,85.108 77.453,85.188 77.403 C 85.268 77.354,85.333 77.131,85.333 76.908 L 85.333 76.503 75.958 76.460 L 66.583 76.417 66.610 75.917 C 66.624 75.642,66.750 74.929,66.890 74.333 C 67.029 73.737,67.243 72.800,67.363 72.250 L 67.583 71.250 76.500 71.167 C 83.199 71.104,85.507 71.032,85.781 70.875 C 85.981 70.760,86.264 70.667,86.409 70.667 C 87.636 70.667,90.852 68.084,91.602 66.496 C 91.796 66.086,92.085 65.477,92.243 65.144 C 92.878 63.811,93.902 63.919,80.414 63.897 C 73.816 63.886,68.079 63.928,67.667 63.992 M109.084 64.388 C 108.858 64.930,108.464 66.545,108.162 68.167 C 108.086 68.579,107.952 69.142,107.866 69.417 C 107.779 69.692,107.627 70.292,107.528 70.750 C 107.288 71.853,106.878 73.678,106.590 74.917 C 106.462 75.467,106.233 76.479,106.081 77.167 C 105.928 77.854,105.702 78.829,105.578 79.333 C 105.211 80.830,104.484 83.995,104.066 85.917 C 103.927 86.558,103.744 87.346,103.659 87.667 C 103.575 87.987,103.390 88.775,103.247 89.417 C 103.105 90.058,102.884 91.033,102.757 91.583 C 102.629 92.133,102.397 93.146,102.241 93.833 C 102.085 94.521,101.892 95.301,101.812 95.566 C 101.593 96.294,101.859 96.499,102.888 96.392 C 106.666 96.000,109.876 92.947,110.747 88.917 C 110.906 88.183,111.132 87.208,111.251 86.750 C 111.369 86.292,111.516 85.617,111.579 85.250 C 111.641 84.883,111.800 84.415,111.933 84.208 L 112.174 83.833 120.379 83.830 C 130.533 83.826,131.104 83.758,133.102 82.308 C 134.530 81.272,135.803 79.232,136.388 77.042 C 137.494 72.902,138.046 70.269,138.039 69.165 C 138.027 67.157,136.981 65.468,135.083 64.390 L 134.250 63.917 121.786 63.868 L 109.322 63.819 109.084 64.388 M155.047 64.828 C 154.664 66.768,155.616 69.104,157.197 70.103 C 158.420 70.875,159.071 70.995,162.031 70.998 C 165.577 71.001,165.717 71.047,165.417 72.116 C 165.293 72.556,165.068 73.479,164.917 74.167 C 164.588 75.665,164.197 77.366,163.998 78.167 C 163.918 78.487,163.738 79.275,163.598 79.917 C 163.458 80.558,163.260 81.421,163.158 81.833 C 163.057 82.246,162.916 82.883,162.846 83.250 C 162.776 83.617,162.635 84.217,162.532 84.583 C 162.429 84.950,162.115 86.300,161.835 87.583 C 161.555 88.867,161.257 90.142,161.174 90.417 C 161.090 90.692,160.942 91.329,160.845 91.833 C 160.748 92.337,160.548 93.237,160.401 93.833 C 160.254 94.429,160.095 95.247,160.048 95.651 L 159.962 96.385 161.106 96.287 C 165.169 95.939,167.940 92.859,169.086 87.417 C 169.240 86.683,169.463 85.708,169.582 85.250 C 169.999 83.632,170.212 82.743,170.339 82.083 C 170.409 81.717,170.593 80.892,170.748 80.250 C 170.902 79.608,171.134 78.615,171.264 78.042 C 171.394 77.469,171.606 76.531,171.736 75.958 C 171.866 75.385,172.097 74.392,172.251 73.750 C 172.405 73.108,172.589 72.299,172.661 71.952 C 172.732 71.604,172.844 71.267,172.909 71.202 C 172.974 71.137,175.711 71.062,178.991 71.036 L 184.956 70.988 185.058 70.117 C 185.297 68.086,184.820 66.630,183.494 65.333 C 182.062 63.933,182.811 63.998,168.147 63.999 L 155.211 64.000 155.047 64.828 M130.252 71.708 C 130.118 72.300,129.984 72.933,129.589 74.833 C 129.215 76.632,129.861 76.500,121.405 76.500 C 112.901 76.500,113.567 76.658,114.017 74.750 C 114.190 74.017,114.402 73.117,114.487 72.750 C 114.573 72.383,114.722 71.877,114.817 71.625 L 114.992 71.167 122.683 71.167 L 130.375 71.167 130.252 71.708 " stroke="none" fill="#f9f9f9" fill-rule="evenodd"></path><path id="path3" d="M70.500 47.417 C 70.500 47.609,70.287 47.667,69.583 47.667 C 68.880 47.667,68.667 47.725,68.667 47.917 C 68.667 48.102,68.472 48.167,67.917 48.167 C 67.361 48.167,67.167 48.231,67.167 48.417 C 67.167 48.597,66.981 48.667,66.500 48.667 C 66.019 48.667,65.833 48.736,65.833 48.917 C 65.833 49.054,65.698 49.167,65.533 49.167 C 65.081 49.167,64.336 49.555,64.335 49.792 C 64.334 49.906,64.161 50.000,63.951 50.000 C 63.730 50.000,63.395 50.209,63.159 50.493 C 62.934 50.764,62.581 50.989,62.375 50.993 C 62.156 50.997,62.000 51.104,62.000 51.250 C 62.000 51.387,61.887 51.500,61.750 51.500 C 61.612 51.500,61.500 51.612,61.500 51.750 C 61.500 51.887,61.387 52.000,61.250 52.000 C 61.112 52.000,61.000 52.112,61.000 52.250 C 61.000 52.387,60.919 52.500,60.820 52.500 C 60.586 52.500,59.167 53.919,59.167 54.154 C 59.167 54.252,59.054 54.333,58.917 54.333 C 58.779 54.333,58.667 54.438,58.667 54.566 C 58.667 54.693,58.554 54.841,58.417 54.894 C 58.279 54.946,58.167 55.100,58.167 55.234 C 58.167 55.369,57.942 55.726,57.667 56.027 C 57.392 56.328,57.167 56.700,57.167 56.853 C 57.167 57.006,57.054 57.174,56.917 57.227 C 56.779 57.280,56.667 57.513,56.667 57.745 C 56.667 57.977,56.592 58.167,56.500 58.167 C 56.408 58.167,56.333 58.346,56.333 58.566 C 56.333 58.785,56.221 59.008,56.083 59.060 C 55.946 59.113,55.833 59.338,55.833 59.560 C 55.833 59.783,55.721 60.008,55.583 60.060 C 55.420 60.123,55.333 60.383,55.333 60.810 C 55.333 61.238,55.247 61.498,55.083 61.560 C 54.911 61.626,54.833 61.895,54.833 62.423 C 54.833 62.883,54.733 63.291,54.583 63.440 C 54.418 63.605,54.333 64.021,54.333 64.661 C 54.333 65.369,54.266 65.657,54.083 65.727 C 53.904 65.796,53.833 66.077,53.833 66.727 C 53.833 67.377,53.763 67.658,53.583 67.727 C 53.407 67.794,53.333 68.069,53.333 68.652 C 53.333 69.107,53.258 69.527,53.167 69.583 C 53.075 69.640,53.000 70.169,53.000 70.760 C 53.000 71.603,52.946 71.833,52.750 71.833 C 52.556 71.833,52.500 72.056,52.500 72.833 C 52.500 73.611,52.444 73.833,52.250 73.833 C 52.058 73.833,52.000 74.046,52.000 74.750 C 52.000 75.454,51.942 75.667,51.750 75.667 C 51.552 75.667,51.500 75.905,51.500 76.816 C 51.500 77.683,51.439 77.988,51.250 78.060 C 51.070 78.129,51.000 78.410,51.000 79.060 C 51.000 79.710,50.930 79.991,50.750 80.060 C 50.574 80.128,50.500 80.403,50.500 80.995 C 50.500 81.456,50.425 81.833,50.333 81.833 C 50.238 81.833,50.167 82.333,50.167 83.000 C 50.167 83.926,50.115 84.167,49.917 84.167 C 49.722 84.167,49.667 84.389,49.667 85.167 C 49.667 85.944,49.611 86.167,49.417 86.167 C 49.225 86.167,49.167 86.380,49.167 87.083 C 49.167 87.787,49.109 88.000,48.917 88.000 C 48.719 88.000,48.667 88.239,48.667 89.149 C 48.667 90.016,48.605 90.321,48.417 90.394 C 48.236 90.463,48.167 90.746,48.167 91.411 C 48.167 92.120,48.109 92.333,47.917 92.333 C 47.727 92.333,47.667 92.538,47.667 93.179 C 47.667 93.708,47.573 94.117,47.417 94.274 C 47.251 94.440,47.167 94.856,47.167 95.512 C 47.167 96.060,47.092 96.500,47.000 96.500 C 46.907 96.500,46.833 96.944,46.833 97.500 C 46.833 98.278,46.778 98.500,46.583 98.500 C 46.391 98.500,46.333 98.713,46.333 99.417 C 46.333 100.120,46.275 100.333,46.083 100.333 C 45.885 100.333,45.833 100.574,45.833 101.500 C 45.833 102.426,45.782 102.667,45.583 102.667 C 45.389 102.667,45.333 102.889,45.333 103.667 C 45.333 104.444,45.278 104.667,45.083 104.667 C 44.894 104.667,44.833 104.872,44.833 105.512 C 44.833 106.041,44.740 106.451,44.583 106.607 C 44.417 106.773,44.333 107.189,44.333 107.845 C 44.333 108.393,44.259 108.833,44.167 108.833 C 44.075 108.833,44.000 109.238,44.000 109.732 C 44.000 110.377,43.929 110.658,43.750 110.727 C 43.561 110.800,43.500 111.107,43.500 111.995 L 43.500 113.167 59.005 113.167 C 72.634 113.167,74.522 113.136,74.606 112.917 C 74.675 112.737,74.957 112.667,75.606 112.667 C 76.256 112.667,76.537 112.596,76.606 112.417 C 76.669 112.254,76.928 112.167,77.351 112.167 C 77.817 112.167,78.000 112.096,78.000 111.917 C 78.000 111.750,78.167 111.667,78.500 111.667 C 78.833 111.667,79.000 111.583,79.000 111.417 C 79.000 111.250,79.167 111.167,79.500 111.167 C 79.833 111.167,80.000 111.083,80.000 110.917 C 80.000 110.761,80.157 110.667,80.417 110.667 C 80.676 110.667,80.833 110.572,80.833 110.417 C 80.833 110.258,80.993 110.167,81.273 110.167 C 81.527 110.167,81.874 109.991,82.098 109.750 C 82.310 109.521,82.563 109.333,82.659 109.333 C 82.755 109.333,82.833 109.221,82.833 109.083 C 82.833 108.946,82.954 108.833,83.101 108.833 C 83.449 108.833,85.667 106.615,85.667 106.267 C 85.667 106.120,85.779 106.000,85.917 106.000 C 86.054 106.000,86.167 105.921,86.167 105.825 C 86.167 105.729,86.354 105.477,86.583 105.265 C 86.825 105.041,87.000 104.694,87.000 104.439 C 87.000 104.160,87.091 104.000,87.250 104.000 C 87.388 104.000,87.500 103.888,87.500 103.750 C 87.500 103.612,87.612 103.500,87.750 103.500 C 87.903 103.500,88.000 103.345,88.000 103.101 C 88.000 102.882,88.112 102.659,88.250 102.606 C 88.415 102.543,88.500 102.282,88.500 101.839 C 88.500 101.352,88.569 101.167,88.750 101.167 C 88.892 101.167,89.000 101.017,89.000 100.821 C 89.000 100.632,89.112 100.364,89.250 100.226 C 89.403 100.073,89.500 99.664,89.500 99.169 C 89.500 98.692,89.581 98.334,89.698 98.295 C 89.815 98.256,89.926 97.771,89.968 97.114 C 90.007 96.501,90.105 96.000,90.186 96.000 C 90.267 96.000,90.333 95.587,90.333 95.083 C 90.333 94.380,90.391 94.167,90.583 94.167 C 90.777 94.167,90.833 93.946,90.833 93.184 C 90.833 92.465,90.900 92.177,91.083 92.106 C 91.270 92.035,91.333 91.736,91.333 90.922 C 91.333 90.065,91.387 89.833,91.583 89.833 C 91.775 89.833,91.833 89.622,91.833 88.934 C 91.833 88.289,91.904 88.009,92.083 87.940 C 92.263 87.871,92.333 87.589,92.333 86.936 C 92.333 86.382,92.411 86.002,92.532 85.962 C 92.649 85.923,92.759 85.438,92.801 84.781 C 92.840 84.168,92.938 83.667,93.019 83.667 C 93.100 83.667,93.167 83.254,93.167 82.750 C 93.167 82.046,93.225 81.833,93.417 81.833 C 93.611 81.833,93.667 81.613,93.667 80.851 C 93.667 80.132,93.734 79.843,93.917 79.773 C 94.104 79.701,94.167 79.402,94.167 78.589 C 94.167 77.732,94.220 77.500,94.417 77.500 C 94.608 77.500,94.667 77.289,94.667 76.601 C 94.667 75.956,94.737 75.675,94.917 75.606 C 95.097 75.537,95.167 75.256,95.167 74.602 C 95.167 74.056,95.245 73.668,95.362 73.629 C 95.473 73.592,95.590 73.101,95.633 72.490 C 95.680 71.823,95.795 71.366,95.938 71.283 C 96.083 71.199,96.167 70.849,96.167 70.325 C 96.167 69.871,96.242 69.500,96.333 69.500 C 96.426 69.500,96.500 69.056,96.500 68.500 C 96.500 67.722,96.556 67.500,96.750 67.500 C 96.948 67.500,97.000 67.259,97.000 66.333 C 97.000 65.407,97.052 65.167,97.250 65.167 C 97.441 65.167,97.500 64.956,97.500 64.268 C 97.500 63.623,97.571 63.342,97.750 63.273 C 97.927 63.205,98.000 62.929,98.000 62.327 C 98.000 61.793,98.093 61.383,98.250 61.226 C 98.415 61.061,98.500 60.646,98.500 60.006 C 98.500 59.297,98.567 59.010,98.750 58.940 C 98.926 58.872,99.000 58.597,99.000 58.005 C 99.000 57.544,99.075 57.167,99.167 57.167 C 99.259 57.167,99.333 56.722,99.333 56.167 C 99.333 55.389,99.389 55.167,99.583 55.167 C 99.782 55.167,99.833 54.926,99.833 54.000 C 99.833 53.074,99.885 52.833,100.083 52.833 C 100.275 52.833,100.333 52.622,100.333 51.934 C 100.333 51.289,100.404 51.009,100.583 50.940 C 100.763 50.871,100.833 50.590,100.833 49.940 C 100.833 49.290,100.904 49.009,101.083 48.940 C 101.260 48.872,101.333 48.597,101.333 48.005 L 101.333 47.167 85.917 47.167 C 72.324 47.167,70.500 47.196,70.500 47.417 M238.500 61.667 C 238.500 61.758,238.310 61.833,238.078 61.833 C 237.846 61.833,237.613 61.946,237.560 62.083 C 237.508 62.221,237.360 62.333,237.232 62.333 C 237.104 62.333,237.000 62.441,237.000 62.572 C 237.000 62.703,236.831 62.834,236.625 62.863 C 236.356 62.902,236.235 63.047,236.197 63.375 C 236.167 63.637,236.042 63.833,235.906 63.833 C 235.751 63.833,235.667 64.010,235.667 64.333 C 235.667 64.667,235.583 64.833,235.417 64.833 C 235.208 64.833,235.167 65.176,235.167 66.917 L 235.167 69.000 234.000 69.000 L 232.833 69.000 232.833 70.667 L 232.833 72.333 234.000 72.333 L 235.167 72.333 235.167 79.167 L 235.167 86.000 237.250 86.000 L 239.333 86.000 239.333 79.167 L 239.333 72.333 241.000 72.333 L 242.667 72.333 242.667 70.667 L 242.667 69.000 241.000 69.000 L 239.333 69.000 239.333 67.667 C 239.333 66.341,239.614 65.667,240.167 65.667 C 240.258 65.667,240.333 65.554,240.333 65.417 C 240.333 65.228,240.538 65.167,241.172 65.167 C 241.764 65.167,242.039 65.093,242.106 64.917 C 242.159 64.779,242.307 64.667,242.434 64.667 C 242.617 64.667,242.667 64.326,242.667 63.083 L 242.667 61.500 240.583 61.500 C 239.306 61.500,238.500 61.564,238.500 61.667 M318.542 62.735 C 318.214 63.080,318.167 63.307,318.167 64.518 C 318.167 66.451,318.414 66.667,320.624 66.667 L 322.196 66.667 322.384 66.167 C 322.488 65.892,322.632 65.667,322.703 65.667 C 322.775 65.667,322.833 65.142,322.833 64.500 C 322.833 63.858,322.775 63.333,322.703 63.333 C 322.632 63.333,322.488 63.108,322.384 62.833 L 322.196 62.333 320.556 62.336 C 319.049 62.339,318.886 62.371,318.542 62.735 M211.874 74.620 L 211.917 85.917 213.954 85.963 C 215.954 86.009,215.993 86.003,216.083 85.630 C 216.134 85.421,216.155 80.337,216.129 74.333 L 216.083 63.417 213.957 63.370 L 211.831 63.323 211.874 74.620 M92.590 64.052 C 92.894 65.261,89.702 69.833,88.555 69.833 C 88.433 69.833,88.333 69.892,88.333 69.963 C 88.333 70.111,87.674 70.404,86.333 70.854 C 85.490 71.137,84.724 71.162,76.750 71.167 C 71.983 71.170,67.998 71.227,67.894 71.294 C 67.728 71.402,67.467 72.369,67.009 74.583 C 66.933 74.950,66.815 75.493,66.748 75.790 L 66.626 76.331 76.021 76.374 L 85.417 76.417 85.394 76.944 C 85.315 78.755,82.895 81.813,80.649 82.941 C 78.755 83.892,78.751 83.893,71.514 83.991 L 64.779 84.083 64.542 85.167 C 64.412 85.763,64.243 86.513,64.168 86.833 C 64.092 87.154,63.910 87.960,63.763 88.624 C 62.831 92.837,60.069 95.691,56.208 96.430 C 54.218 96.811,54.239 96.873,55.112 93.167 C 55.252 92.571,55.431 91.783,55.509 91.417 C 55.684 90.599,56.064 88.946,56.409 87.500 C 56.551 86.904,56.742 86.051,56.833 85.603 C 56.925 85.156,57.070 84.519,57.155 84.187 C 57.241 83.855,57.432 83.058,57.580 82.417 C 57.728 81.775,57.955 80.800,58.083 80.250 C 58.211 79.700,58.435 78.725,58.580 78.083 C 58.726 77.442,58.960 76.429,59.102 75.833 C 59.244 75.237,59.427 74.450,59.511 74.083 C 60.631 69.142,60.671 69.030,61.944 67.326 C 63.144 65.719,65.271 64.326,67.159 63.913 C 67.832 63.765,71.397 63.704,80.288 63.688 L 92.494 63.667 92.590 64.052 M311.606 64.583 C 311.546 64.740,311.292 64.833,310.924 64.833 C 309.840 64.833,309.667 65.159,309.667 67.204 L 309.667 69.000 308.661 69.000 L 307.655 69.000 307.702 70.625 L 307.750 72.250 308.708 72.300 L 309.667 72.350 309.667 77.092 C 309.667 81.195,309.700 81.833,309.917 81.833 C 310.113 81.833,310.167 82.065,310.167 82.922 C 310.167 83.736,310.230 84.035,310.417 84.106 C 310.554 84.159,310.667 84.273,310.667 84.359 C 310.667 84.670,311.791 85.667,312.142 85.667 C 312.339 85.667,312.500 85.742,312.500 85.833 C 312.500 85.937,313.389 86.000,314.833 86.000 L 317.167 86.000 317.167 84.167 L 317.167 82.333 316.000 82.333 C 315.074 82.333,314.833 82.282,314.833 82.083 C 314.833 81.946,314.721 81.833,314.583 81.833 C 314.446 81.833,314.333 81.721,314.333 81.583 C 314.333 81.446,314.221 81.333,314.083 81.333 C 313.867 81.333,313.833 80.722,313.833 76.833 L 313.833 72.333 315.500 72.333 L 317.167 72.333 317.167 70.667 L 317.167 69.000 315.500 69.000 L 313.833 69.000 313.833 66.667 L 313.833 64.333 312.768 64.333 C 311.974 64.333,311.678 64.397,311.606 64.583 M221.060 68.750 C 220.992 68.929,220.712 69.000,220.074 69.000 C 219.484 69.000,219.138 69.079,219.050 69.234 C 218.977 69.363,218.729 69.494,218.500 69.526 L 218.083 69.583 218.037 77.417 C 217.980 87.105,217.704 86.021,220.213 85.963 L 222.250 85.917 222.294 79.125 L 222.337 72.333 223.488 72.333 C 224.253 72.333,224.667 72.263,224.723 72.125 C 224.790 71.958,224.810 71.958,224.820 72.125 C 224.829 72.265,225.135 72.333,225.750 72.333 C 226.323 72.333,226.667 72.404,226.667 72.523 C 226.667 72.627,226.854 72.886,227.083 73.098 L 227.500 73.484 227.500 79.478 C 227.500 82.775,227.546 85.591,227.601 85.736 C 227.686 85.957,228.038 86.000,229.768 86.000 L 231.833 86.000 231.833 78.828 C 231.833 72.607,231.800 71.643,231.583 71.560 C 231.446 71.508,231.333 71.360,231.333 71.232 C 231.333 71.104,231.226 71.000,231.094 71.000 C 230.958 71.000,230.833 70.804,230.803 70.542 C 230.761 70.182,230.652 70.072,230.292 70.031 C 230.040 70.002,229.833 69.908,229.833 69.822 C 229.833 69.462,229.141 69.000,228.601 69.000 C 228.252 69.000,227.999 68.904,227.940 68.750 C 227.859 68.539,227.319 68.500,224.500 68.500 C 221.681 68.500,221.141 68.539,221.060 68.750 M248.000 68.750 C 248.000 68.925,247.823 69.000,247.411 69.000 C 246.976 69.000,246.694 69.131,246.333 69.500 C 246.065 69.775,245.767 70.000,245.672 70.000 C 245.578 70.000,245.500 70.112,245.500 70.250 C 245.500 70.387,245.425 70.500,245.333 70.500 C 245.242 70.500,245.167 70.612,245.167 70.750 C 245.167 70.887,245.093 71.000,245.002 71.000 C 244.676 71.000,244.167 71.582,244.167 71.954 C 244.167 72.180,244.066 72.333,243.917 72.333 C 243.750 72.333,243.667 72.500,243.667 72.833 C 243.667 73.167,243.583 73.333,243.417 73.333 C 243.227 73.333,243.165 73.544,243.161 74.208 C 243.158 74.712,243.052 75.221,242.911 75.407 C 242.559 75.873,242.563 79.040,242.917 79.333 C 243.082 79.471,243.167 79.844,243.167 80.437 C 243.167 81.123,243.225 81.333,243.417 81.333 C 243.592 81.333,243.667 81.510,243.667 81.922 C 243.667 82.291,243.760 82.546,243.917 82.606 C 244.054 82.659,244.167 82.807,244.167 82.934 C 244.167 83.062,244.279 83.167,244.417 83.167 C 244.559 83.167,244.667 83.316,244.667 83.513 C 244.667 83.903,245.858 85.167,246.226 85.167 C 246.357 85.167,246.508 85.279,246.560 85.417 C 246.613 85.554,246.846 85.667,247.078 85.667 C 247.310 85.667,247.500 85.742,247.500 85.833 C 247.500 85.938,248.611 86.000,250.500 86.000 C 252.389 86.000,253.500 85.938,253.500 85.833 C 253.500 85.742,253.645 85.667,253.821 85.667 C 253.998 85.667,254.255 85.554,254.393 85.417 C 254.530 85.279,254.723 85.167,254.821 85.167 C 254.920 85.167,255.000 85.054,255.000 84.917 C 255.000 84.779,255.112 84.667,255.250 84.667 C 255.387 84.667,255.500 84.554,255.500 84.417 C 255.500 84.279,255.612 84.167,255.750 84.167 C 255.887 84.167,256.000 84.054,256.000 83.917 C 256.000 83.779,256.112 83.667,256.250 83.667 C 256.387 83.667,256.500 83.560,256.500 83.431 C 256.500 83.301,256.556 83.169,256.625 83.139 C 256.894 83.019,257.333 81.943,257.333 81.403 C 257.333 81.008,257.410 80.833,257.583 80.833 C 257.798 80.833,257.833 80.333,257.833 77.333 C 257.833 74.333,257.798 73.833,257.583 73.833 C 257.414 73.833,257.333 73.664,257.333 73.306 C 257.333 72.737,256.855 71.500,256.635 71.500 C 256.561 71.500,256.500 71.387,256.500 71.250 C 256.500 71.112,256.387 71.000,256.250 71.000 C 256.112 71.000,256.000 70.887,256.000 70.750 C 256.000 70.612,255.887 70.500,255.750 70.500 C 255.612 70.500,255.500 70.387,255.500 70.250 C 255.500 70.112,255.387 70.000,255.250 70.000 C 255.112 70.000,255.000 69.887,255.000 69.750 C 255.000 69.597,254.845 69.500,254.601 69.500 C 254.382 69.500,254.159 69.387,254.106 69.250 C 254.054 69.112,253.829 69.000,253.606 69.000 C 253.384 69.000,253.159 68.887,253.106 68.750 C 253.027 68.543,252.578 68.500,250.505 68.500 C 248.389 68.500,248.000 68.539,248.000 68.750 M262.227 68.750 C 262.158 68.929,261.877 69.000,261.232 69.000 C 260.544 69.000,260.333 69.059,260.333 69.250 C 260.333 69.417,260.167 69.500,259.833 69.500 L 259.333 69.500 259.333 77.750 L 259.333 86.000 261.417 86.000 L 263.500 86.000 263.500 79.167 L 263.500 72.333 265.667 72.333 L 267.833 72.333 267.833 71.601 C 267.833 71.104,267.914 70.838,268.083 70.773 C 268.270 70.701,268.333 70.402,268.333 69.589 L 268.333 68.500 265.328 68.500 C 262.811 68.500,262.307 68.541,262.227 68.750 M271.833 68.750 C 271.714 68.894,271.351 69.000,270.980 69.000 C 270.528 69.000,270.333 69.072,270.333 69.240 C 270.333 69.404,270.107 69.497,269.625 69.532 L 268.917 69.583 268.917 77.750 L 268.917 85.917 270.958 85.963 L 273.000 86.010 273.000 79.172 L 273.000 72.333 274.153 72.333 C 274.919 72.333,275.334 72.263,275.390 72.125 C 275.457 71.958,275.476 71.958,275.487 72.125 C 275.496 72.265,275.801 72.333,276.417 72.333 C 277.120 72.333,277.333 72.391,277.333 72.583 C 277.333 72.721,277.408 72.833,277.500 72.833 C 278.299 72.833,278.333 73.119,278.333 79.750 L 278.333 86.000 280.417 86.000 L 282.500 86.000 282.500 79.417 C 282.500 73.026,282.509 72.833,282.821 72.833 C 282.998 72.833,283.261 72.715,283.406 72.570 C 283.785 72.191,286.324 72.191,286.536 72.570 C 286.617 72.715,286.830 72.833,287.008 72.833 C 287.244 72.833,287.333 72.948,287.333 73.250 C 287.333 73.509,287.428 73.667,287.583 73.667 C 287.801 73.667,287.833 74.463,287.833 79.833 L 287.833 86.000 289.917 86.000 L 292.000 86.000 292.000 79.167 C 292.000 73.204,291.968 72.333,291.750 72.333 C 291.569 72.333,291.500 72.148,291.500 71.667 C 291.500 71.300,291.425 71.000,291.333 71.000 C 291.242 71.000,291.167 70.887,291.167 70.750 C 291.167 70.612,291.054 70.500,290.917 70.500 C 290.779 70.500,290.667 70.387,290.667 70.250 C 290.667 70.112,290.554 70.000,290.417 70.000 C 290.279 70.000,290.167 69.887,290.167 69.750 C 290.167 69.612,290.062 69.500,289.934 69.500 C 289.807 69.500,289.659 69.387,289.606 69.250 C 289.547 69.095,289.293 69.000,288.940 69.000 C 288.586 69.000,288.332 68.905,288.273 68.750 C 288.194 68.543,287.744 68.500,285.667 68.500 C 283.589 68.500,283.140 68.543,283.060 68.750 C 282.998 68.913,282.738 69.000,282.316 69.000 C 281.850 69.000,281.667 69.071,281.667 69.250 C 281.667 69.406,281.509 69.500,281.245 69.500 C 281.013 69.500,280.780 69.612,280.727 69.750 C 280.674 69.887,280.527 70.000,280.399 70.000 C 280.271 70.000,280.167 69.887,280.167 69.750 C 280.167 69.612,280.054 69.500,279.917 69.500 C 279.779 69.500,279.667 69.387,279.667 69.250 C 279.667 69.071,279.483 69.000,279.018 69.000 C 278.595 69.000,278.336 68.913,278.273 68.750 C 278.193 68.540,277.682 68.500,275.109 68.500 C 272.585 68.500,272.004 68.544,271.833 68.750 M296.833 68.750 C 296.833 68.942,296.620 69.000,295.917 69.000 C 295.213 69.000,295.000 69.058,295.000 69.250 C 295.000 69.417,294.833 69.500,294.500 69.500 C 294.028 69.500,294.000 69.537,294.000 70.167 C 294.000 70.648,294.069 70.833,294.250 70.833 C 294.435 70.833,294.500 71.028,294.500 71.583 C 294.500 72.139,294.565 72.333,294.750 72.333 C 294.887 72.333,295.000 72.446,295.000 72.583 C 295.000 72.764,295.185 72.833,295.667 72.833 C 296.148 72.833,296.333 72.764,296.333 72.583 C 296.333 72.403,296.519 72.333,297.000 72.333 C 297.481 72.333,297.667 72.264,297.667 72.083 C 297.667 71.877,297.972 71.833,299.417 71.833 C 300.861 71.833,301.167 71.877,301.167 72.083 C 301.167 72.239,301.324 72.333,301.583 72.333 C 301.843 72.333,302.000 72.428,302.000 72.583 C 302.000 72.721,302.112 72.833,302.250 72.833 C 302.431 72.833,302.500 73.019,302.500 73.500 C 302.500 73.981,302.569 74.167,302.750 74.167 C 302.887 74.167,303.000 74.279,303.000 74.417 C 303.000 74.621,302.712 74.667,301.411 74.667 C 300.153 74.667,299.803 74.719,299.727 74.917 C 299.655 75.105,299.350 75.167,298.482 75.167 C 297.572 75.167,297.333 75.219,297.333 75.417 C 297.333 75.596,297.150 75.667,296.684 75.667 C 296.262 75.667,296.002 75.754,295.940 75.917 C 295.887 76.054,295.654 76.167,295.422 76.167 C 295.158 76.167,295.000 76.260,295.000 76.417 C 295.000 76.554,294.926 76.667,294.835 76.667 C 294.591 76.667,294.000 77.211,294.000 77.436 C 294.000 77.543,293.887 77.674,293.750 77.727 C 293.593 77.787,293.500 78.042,293.500 78.411 C 293.500 78.823,293.425 79.000,293.250 79.000 C 293.043 79.000,293.000 79.315,293.000 80.833 C 293.000 82.352,293.043 82.667,293.250 82.667 C 293.417 82.667,293.500 82.833,293.500 83.167 C 293.500 83.500,293.583 83.667,293.750 83.667 C 293.906 83.667,294.000 83.825,294.000 84.087 C 294.000 84.422,294.103 84.529,294.500 84.608 C 294.775 84.663,295.000 84.781,295.000 84.869 C 295.000 85.189,295.762 85.656,296.292 85.661 C 296.590 85.664,296.833 85.742,296.833 85.833 C 296.833 85.940,298.278 86.000,300.833 86.000 C 303.389 86.000,304.833 85.940,304.833 85.833 C 304.833 85.742,305.084 85.667,305.391 85.667 C 305.731 85.667,306.121 85.518,306.391 85.286 L 306.833 84.906 306.833 78.448 C 306.833 72.861,306.800 71.977,306.583 71.894 C 306.446 71.841,306.333 71.618,306.333 71.399 C 306.333 71.155,306.236 71.000,306.083 71.000 C 305.940 71.000,305.833 70.850,305.833 70.648 C 305.833 70.178,305.174 69.506,304.708 69.503 C 304.487 69.501,304.333 69.397,304.333 69.250 C 304.333 69.071,304.150 69.000,303.684 69.000 C 303.262 69.000,303.002 68.913,302.940 68.750 C 302.859 68.541,302.356 68.500,299.839 68.500 C 297.278 68.500,296.833 68.537,296.833 68.750 M329.167 68.750 C 329.167 68.931,328.981 69.000,328.495 69.000 C 328.051 69.000,327.790 69.085,327.727 69.250 C 327.674 69.387,327.527 69.500,327.399 69.500 C 327.271 69.500,327.167 69.612,327.167 69.750 C 327.167 69.903,327.011 70.000,326.768 70.000 C 326.477 70.000,326.340 70.118,326.260 70.437 C 326.140 70.916,325.791 71.333,325.512 71.333 C 325.414 71.333,325.333 71.448,325.333 71.589 C 325.333 71.729,325.221 71.887,325.083 71.940 C 324.920 72.002,324.833 72.262,324.833 72.684 C 324.833 73.150,324.763 73.333,324.583 73.333 C 324.392 73.333,324.333 73.544,324.333 74.232 C 324.333 74.877,324.263 75.158,324.083 75.227 C 323.880 75.305,323.833 75.697,323.833 77.310 C 323.833 78.923,323.880 79.316,324.083 79.394 C 324.264 79.463,324.333 79.746,324.333 80.411 C 324.333 81.120,324.391 81.333,324.583 81.333 C 324.764 81.333,324.833 81.519,324.833 82.000 C 324.833 82.481,324.903 82.667,325.083 82.667 C 325.221 82.667,325.333 82.779,325.333 82.917 C 325.333 83.054,325.446 83.167,325.583 83.167 C 325.726 83.167,325.833 83.316,325.833 83.515 C 325.833 83.939,326.960 85.167,327.350 85.167 C 327.504 85.167,327.674 85.279,327.727 85.417 C 327.780 85.554,328.013 85.667,328.245 85.667 C 328.477 85.667,328.667 85.742,328.667 85.833 C 328.667 85.938,329.778 86.000,331.667 86.000 C 333.383 86.000,334.667 85.934,334.667 85.847 C 334.667 85.762,334.892 85.644,335.167 85.583 C 335.442 85.523,335.667 85.404,335.667 85.320 C 335.667 85.236,335.779 85.167,335.917 85.167 C 336.054 85.167,336.167 85.054,336.167 84.917 C 336.167 84.779,336.279 84.667,336.417 84.667 C 336.554 84.667,336.667 84.554,336.667 84.417 C 336.667 84.279,336.779 84.167,336.917 84.167 C 337.054 84.167,337.167 84.088,337.167 83.992 C 337.167 83.896,337.354 83.644,337.583 83.431 C 337.813 83.219,338.000 82.883,338.000 82.684 C 338.000 82.485,338.112 82.280,338.250 82.227 C 338.413 82.164,338.500 81.905,338.500 81.482 C 338.500 81.017,338.571 80.833,338.750 80.833 C 338.964 80.833,339.000 80.333,339.000 77.333 C 339.000 74.333,338.964 73.833,338.750 73.833 C 338.569 73.833,338.500 73.648,338.500 73.161 C 338.500 72.718,338.415 72.457,338.250 72.394 C 338.112 72.341,338.000 72.193,338.000 72.066 C 338.000 71.938,337.925 71.833,337.833 71.833 C 337.742 71.833,337.667 71.681,337.667 71.495 C 337.667 71.309,337.554 71.113,337.417 71.060 C 337.279 71.008,337.167 70.860,337.167 70.732 C 337.167 70.604,337.054 70.500,336.917 70.500 C 336.779 70.500,336.667 70.387,336.667 70.250 C 336.667 70.112,336.554 70.000,336.417 70.000 C 336.279 70.000,336.167 69.887,336.167 69.750 C 336.167 69.583,336.000 69.500,335.667 69.500 C 335.333 69.500,335.167 69.417,335.167 69.250 C 335.167 69.097,335.011 69.000,334.768 69.000 C 334.548 69.000,334.326 68.887,334.273 68.750 C 334.194 68.543,333.745 68.500,331.672 68.500 C 329.556 68.500,329.167 68.539,329.167 68.750 M343.394 68.750 C 343.325 68.929,343.044 69.000,342.399 69.000 C 341.711 69.000,341.500 69.059,341.500 69.250 C 341.500 69.417,341.333 69.500,341.000 69.500 L 340.500 69.500 340.500 77.750 L 340.500 86.000 342.583 86.000 L 344.667 86.000 344.667 79.167 L 344.667 72.333 345.742 72.333 C 346.590 72.333,346.853 72.272,346.987 72.042 C 347.148 71.764,347.157 71.764,347.162 72.042 C 347.166 72.283,347.323 72.333,348.083 72.333 C 348.787 72.333,349.000 72.391,349.000 72.583 C 349.000 72.721,349.075 72.833,349.167 72.833 C 349.955 72.833,349.993 73.132,350.040 79.706 L 350.083 85.917 352.125 85.963 L 354.167 86.010 354.167 78.922 C 354.167 72.732,354.135 71.833,353.917 71.833 C 353.761 71.833,353.667 71.676,353.667 71.417 C 353.667 71.188,353.598 71.000,353.513 71.000 C 353.429 71.000,353.310 70.775,353.250 70.500 C 353.165 70.112,353.049 70.000,352.737 70.000 C 352.489 70.000,352.333 69.903,352.333 69.750 C 352.333 69.612,352.229 69.500,352.101 69.500 C 351.973 69.500,351.826 69.387,351.773 69.250 C 351.710 69.085,351.449 69.000,351.005 69.000 C 350.519 69.000,350.333 68.931,350.333 68.750 C 350.333 68.536,349.842 68.500,346.911 68.500 C 344.023 68.500,343.475 68.539,343.394 68.750 M318.207 77.458 L 318.250 85.917 320.333 85.917 L 322.417 85.917 322.460 77.458 L 322.503 69.000 320.333 69.000 L 318.164 69.000 318.207 77.458 M250.833 72.083 C 250.833 72.240,250.991 72.333,251.255 72.333 C 251.487 72.333,251.720 72.446,251.773 72.583 C 251.826 72.721,251.941 72.833,252.030 72.833 C 252.246 72.833,252.667 73.266,252.667 73.488 C 252.667 73.586,252.779 73.667,252.917 73.667 C 253.083 73.667,253.167 73.833,253.167 74.167 C 253.167 74.500,253.250 74.667,253.417 74.667 C 253.628 74.667,253.667 75.074,253.667 77.333 C 253.667 79.593,253.628 80.000,253.417 80.000 C 253.261 80.000,253.167 80.157,253.167 80.417 C 253.167 80.646,253.096 80.833,253.009 80.833 C 252.923 80.833,252.719 81.058,252.557 81.333 C 252.394 81.608,252.165 81.833,252.047 81.833 C 251.930 81.833,251.833 81.946,251.833 82.083 C 251.833 82.250,251.667 82.333,251.333 82.333 C 251.000 82.333,250.833 82.417,250.833 82.583 C 250.833 82.750,250.667 82.833,250.333 82.833 C 250.000 82.833,249.833 82.750,249.833 82.583 C 249.833 82.417,249.667 82.333,249.333 82.333 C 249.000 82.333,248.833 82.250,248.833 82.083 C 248.833 81.946,248.721 81.833,248.583 81.833 C 248.446 81.833,248.333 81.721,248.333 81.583 C 248.333 81.446,248.258 81.333,248.167 81.333 C 248.075 81.333,248.000 81.143,248.000 80.911 C 248.000 80.679,247.887 80.446,247.750 80.394 C 247.575 80.326,247.500 80.053,247.500 79.477 C 247.500 78.901,247.425 78.628,247.250 78.560 C 247.061 78.488,247.000 78.182,247.000 77.310 C 247.000 76.438,247.061 76.133,247.250 76.060 C 247.429 75.992,247.500 75.713,247.500 75.083 C 247.500 74.454,247.571 74.175,247.750 74.106 C 247.887 74.054,248.000 73.858,248.000 73.672 C 248.000 73.486,248.075 73.333,248.167 73.333 C 248.258 73.333,248.333 73.221,248.333 73.083 C 248.333 72.946,248.446 72.833,248.583 72.833 C 248.721 72.833,248.833 72.721,248.833 72.583 C 248.833 72.402,249.019 72.333,249.505 72.333 C 249.949 72.333,250.210 72.248,250.273 72.083 C 250.326 71.946,250.473 71.833,250.601 71.833 C 250.729 71.833,250.833 71.946,250.833 72.083 M332.000 72.083 C 332.000 72.231,332.154 72.335,332.375 72.336 C 332.581 72.338,332.927 72.525,333.142 72.753 C 333.358 72.980,333.602 73.167,333.684 73.167 C 333.766 73.167,333.833 73.279,333.833 73.417 C 333.833 73.554,333.946 73.667,334.083 73.667 C 334.250 73.667,334.333 73.833,334.333 74.167 C 334.333 74.500,334.417 74.667,334.583 74.667 C 334.795 74.667,334.833 75.074,334.833 77.333 C 334.833 79.593,334.795 80.000,334.583 80.000 C 334.444 80.000,334.333 80.148,334.333 80.333 C 334.333 80.517,334.033 80.967,333.667 81.333 C 333.300 81.700,333.000 82.075,333.000 82.167 C 333.000 82.258,332.775 82.333,332.500 82.333 C 332.167 82.333,332.000 82.417,332.000 82.583 C 332.000 82.750,331.833 82.833,331.500 82.833 C 331.167 82.833,331.000 82.750,331.000 82.583 C 331.000 82.417,330.833 82.333,330.500 82.333 C 330.167 82.333,330.000 82.250,330.000 82.083 C 330.000 81.946,329.887 81.833,329.750 81.833 C 329.612 81.833,329.500 81.721,329.500 81.583 C 329.500 81.446,329.387 81.333,329.250 81.333 C 329.096 81.333,329.000 81.177,329.000 80.927 C 329.000 80.703,328.925 80.473,328.833 80.417 C 328.742 80.360,328.667 79.986,328.667 79.585 C 328.667 79.160,328.563 78.753,328.417 78.607 C 328.246 78.437,328.167 78.015,328.167 77.282 C 328.167 76.530,328.242 76.145,328.417 76.000 C 328.576 75.867,328.667 75.499,328.667 74.980 C 328.667 74.532,328.742 74.167,328.833 74.167 C 328.925 74.167,329.000 73.979,329.000 73.750 C 329.000 73.491,329.094 73.333,329.250 73.333 C 329.387 73.333,329.500 73.221,329.500 73.083 C 329.500 72.946,329.612 72.833,329.750 72.833 C 329.887 72.833,330.000 72.721,330.000 72.583 C 330.000 72.404,330.183 72.333,330.649 72.333 C 331.072 72.333,331.331 72.246,331.394 72.083 C 331.446 71.946,331.604 71.833,331.745 71.833 C 331.885 71.833,332.000 71.946,332.000 72.083 M303.000 80.417 L 303.000 82.833 300.851 82.833 C 299.095 82.833,298.685 82.788,298.606 82.583 C 298.554 82.446,298.321 82.333,298.089 82.333 C 297.825 82.333,297.667 82.240,297.667 82.083 C 297.667 81.946,297.592 81.833,297.500 81.833 C 297.405 81.833,297.333 81.333,297.333 80.667 C 297.333 80.000,297.405 79.500,297.500 79.500 C 297.592 79.500,297.667 79.387,297.667 79.250 C 297.667 79.112,297.811 79.000,297.988 79.000 C 298.165 79.000,298.422 78.887,298.560 78.750 C 298.697 78.612,299.002 78.500,299.238 78.500 C 299.508 78.500,299.667 78.407,299.667 78.250 C 299.667 78.044,299.963 78.000,301.333 78.000 L 303.000 78.000 303.000 80.417 M240.894 90.583 C 240.841 90.721,240.616 90.833,240.394 90.833 C 240.171 90.833,239.946 90.946,239.894 91.083 C 239.841 91.221,239.618 91.333,239.399 91.333 C 239.155 91.333,239.000 91.431,239.000 91.583 C 239.000 91.721,238.887 91.833,238.750 91.833 C 238.612 91.833,238.500 91.946,238.500 92.083 C 238.500 92.221,238.387 92.333,238.250 92.333 C 238.112 92.333,238.000 92.408,238.000 92.500 C 238.000 92.592,237.887 92.667,237.750 92.667 C 237.612 92.667,237.500 92.771,237.500 92.899 C 237.500 93.027,237.387 93.174,237.250 93.227 C 237.112 93.280,237.000 93.481,237.000 93.673 C 237.000 93.866,236.887 94.136,236.750 94.274 C 236.553 94.471,236.500 94.993,236.500 96.750 C 236.500 98.507,236.553 99.029,236.750 99.226 C 236.887 99.364,237.000 99.634,237.000 99.827 C 237.000 100.019,237.112 100.220,237.250 100.273 C 237.387 100.326,237.500 100.473,237.500 100.601 C 237.500 100.729,237.612 100.833,237.750 100.833 C 237.887 100.833,238.000 100.908,238.000 101.000 C 238.000 101.092,238.112 101.167,238.250 101.167 C 238.387 101.167,238.500 101.279,238.500 101.417 C 238.500 101.554,238.612 101.667,238.750 101.667 C 238.887 101.667,239.000 101.742,239.000 101.833 C 239.000 102.116,239.649 102.667,239.982 102.667 C 240.156 102.667,240.341 102.779,240.394 102.917 C 240.446 103.054,240.671 103.167,240.894 103.167 C 241.116 103.167,241.341 103.279,241.394 103.417 C 241.446 103.554,241.679 103.667,241.911 103.667 C 242.143 103.667,242.333 103.742,242.333 103.833 C 242.333 103.925,242.521 104.000,242.750 104.000 C 243.009 104.000,243.167 104.094,243.167 104.250 C 243.167 104.417,243.333 104.500,243.667 104.500 C 244.000 104.500,244.167 104.583,244.167 104.750 C 244.167 104.888,244.279 105.000,244.417 105.000 C 244.554 105.000,244.667 105.112,244.667 105.250 C 244.667 105.388,244.779 105.500,244.917 105.500 C 245.071 105.500,245.167 105.656,245.167 105.907 C 245.167 106.131,245.242 106.360,245.333 106.417 C 245.425 106.473,245.500 106.740,245.500 107.010 C 245.500 107.279,245.425 107.500,245.333 107.500 C 245.242 107.500,245.167 107.688,245.167 107.917 C 245.167 108.176,245.072 108.333,244.917 108.333 C 244.779 108.333,244.667 108.446,244.667 108.583 C 244.667 108.721,244.554 108.833,244.417 108.833 C 244.279 108.833,244.167 108.946,244.167 109.083 C 244.167 109.264,243.981 109.333,243.495 109.333 C 243.051 109.333,242.790 109.418,242.727 109.583 C 242.665 109.745,242.407 109.833,242.000 109.833 C 241.593 109.833,241.335 109.745,241.273 109.583 C 241.204 109.403,240.921 109.333,240.255 109.333 C 239.547 109.333,239.333 109.275,239.333 109.083 C 239.333 108.927,239.175 108.833,238.911 108.833 C 238.679 108.833,238.446 108.721,238.394 108.583 C 238.116 107.859,237.000 108.778,237.000 109.732 C 237.000 110.155,236.926 110.333,236.750 110.333 C 236.583 110.333,236.500 110.500,236.500 110.833 C 236.500 111.108,236.425 111.333,236.333 111.333 C 236.242 111.333,236.167 111.633,236.167 112.000 C 236.167 112.563,236.220 112.667,236.512 112.667 C 236.702 112.667,236.970 112.779,237.107 112.917 C 237.262 113.071,237.671 113.167,238.179 113.167 C 238.630 113.167,239.000 113.242,239.000 113.333 C 239.000 113.438,240.111 113.500,242.000 113.500 C 243.889 113.500,245.000 113.438,245.000 113.333 C 245.000 113.242,245.184 113.167,245.410 113.167 C 245.942 113.167,246.991 112.643,246.996 112.375 C 246.998 112.260,247.171 112.167,247.380 112.167 C 247.752 112.167,248.333 111.657,248.333 111.331 C 248.333 111.241,248.446 111.167,248.583 111.167 C 248.750 111.167,248.833 111.000,248.833 110.667 C 248.833 110.333,248.917 110.167,249.083 110.167 C 249.236 110.167,249.333 110.011,249.333 109.768 C 249.333 109.548,249.446 109.326,249.583 109.273 C 249.789 109.194,249.833 108.773,249.833 106.922 C 249.833 105.028,249.793 104.667,249.583 104.667 C 249.402 104.667,249.333 104.481,249.333 103.995 C 249.333 103.551,249.248 103.290,249.083 103.227 C 248.946 103.174,248.833 103.027,248.833 102.899 C 248.833 102.771,248.721 102.667,248.583 102.667 C 248.446 102.667,248.333 102.586,248.333 102.487 C 248.333 102.134,247.359 101.333,246.929 101.333 C 246.659 101.333,246.500 101.241,246.500 101.083 C 246.500 100.917,246.333 100.833,246.000 100.833 C 245.667 100.833,245.500 100.750,245.500 100.583 C 245.500 100.431,245.345 100.333,245.101 100.333 C 244.882 100.333,244.659 100.221,244.606 100.083 C 244.554 99.946,244.321 99.833,244.089 99.833 C 243.825 99.833,243.667 99.740,243.667 99.583 C 243.667 99.446,243.554 99.333,243.417 99.333 C 243.279 99.333,243.167 99.266,243.167 99.185 C 243.167 99.103,242.974 98.988,242.738 98.929 C 242.298 98.818,241.333 97.948,241.333 97.661 C 241.333 97.572,241.221 97.500,241.083 97.500 C 240.902 97.500,240.833 97.313,240.833 96.821 C 240.833 96.440,240.943 96.033,241.083 95.893 C 241.221 95.755,241.333 95.498,241.333 95.321 C 241.333 95.145,241.446 95.000,241.583 95.000 C 241.721 95.000,241.833 94.925,241.833 94.833 C 241.833 94.742,242.021 94.667,242.250 94.667 C 242.509 94.667,242.667 94.572,242.667 94.417 C 242.667 94.217,242.917 94.167,243.917 94.167 C 244.629 94.167,245.167 94.238,245.167 94.331 C 245.167 94.422,245.467 94.544,245.833 94.603 C 246.200 94.661,246.500 94.775,246.500 94.855 C 246.500 94.935,246.912 95.000,247.417 95.000 L 248.333 95.000 248.333 94.333 C 248.333 93.852,248.403 93.667,248.583 93.667 C 248.769 93.667,248.833 93.472,248.833 92.917 C 248.833 92.361,248.898 92.167,249.083 92.167 C 249.239 92.167,249.333 92.009,249.333 91.750 C 249.333 91.398,249.256 91.333,248.833 91.333 C 248.500 91.333,248.333 91.250,248.333 91.083 C 248.333 90.904,248.150 90.833,247.684 90.833 C 247.262 90.833,247.002 90.746,246.940 90.583 C 246.859 90.374,246.365 90.333,243.917 90.333 C 241.469 90.333,240.974 90.374,240.894 90.583 M283.560 91.583 C 283.498 91.746,283.238 91.833,282.816 91.833 C 282.350 91.833,282.167 91.904,282.167 92.083 C 282.167 92.269,281.972 92.333,281.417 92.333 L 280.667 92.333 280.667 94.167 L 280.667 96.000 279.764 96.000 C 278.319 96.000,278.333 95.982,278.333 97.768 L 278.333 99.333 279.500 99.333 L 280.667 99.333 280.667 104.922 C 280.667 109.736,280.701 110.524,280.917 110.606 C 281.059 110.661,281.167 110.910,281.167 111.184 C 281.167 111.502,281.252 111.667,281.417 111.667 C 281.554 111.667,281.667 111.779,281.667 111.917 C 281.667 112.054,281.779 112.167,281.917 112.167 C 282.054 112.167,282.167 112.279,282.167 112.417 C 282.167 112.554,282.279 112.667,282.417 112.667 C 282.554 112.667,282.667 112.779,282.667 112.917 C 282.667 113.083,282.833 113.167,283.167 113.167 C 283.442 113.167,283.667 113.242,283.667 113.333 C 283.667 113.434,284.389 113.500,285.500 113.500 C 286.611 113.500,287.333 113.434,287.333 113.333 C 287.333 113.242,287.468 113.167,287.633 113.167 C 288.276 113.167,288.620 111.169,288.228 109.708 C 288.105 109.249,286.833 109.135,286.833 109.583 C 286.833 109.721,286.729 109.833,286.601 109.833 C 286.473 109.833,286.326 109.721,286.273 109.583 C 286.220 109.446,285.987 109.333,285.755 109.333 C 285.491 109.333,285.333 109.240,285.333 109.083 C 285.333 108.946,285.258 108.833,285.167 108.833 C 285.059 108.833,285.000 107.141,285.000 104.089 L 285.000 99.345 286.625 99.298 L 288.250 99.250 288.299 97.960 C 288.370 96.071,288.304 96.000,286.494 96.000 L 285.000 96.000 285.000 93.930 C 285.000 92.792,284.954 91.742,284.899 91.597 C 284.765 91.248,283.693 91.237,283.560 91.583 M249.944 96.111 C 249.726 96.329,249.831 97.297,250.083 97.394 C 250.241 97.454,250.333 97.709,250.333 98.083 C 250.333 98.457,250.426 98.713,250.583 98.773 C 250.726 98.828,250.833 99.076,250.833 99.351 C 250.833 99.669,250.919 99.833,251.083 99.833 C 251.264 99.833,251.333 100.019,251.333 100.500 C 251.333 100.867,251.408 101.167,251.500 101.167 C 251.592 101.167,251.667 101.377,251.667 101.635 C 251.667 101.892,251.777 102.249,251.911 102.426 C 252.046 102.604,252.158 102.921,252.161 103.130 C 252.164 103.339,252.279 103.554,252.417 103.606 C 252.580 103.669,252.667 103.928,252.667 104.351 C 252.667 104.817,252.737 105.000,252.917 105.000 C 253.090 105.000,253.167 105.174,253.167 105.563 C 253.167 105.873,253.279 106.219,253.417 106.333 C 253.554 106.447,253.667 106.719,253.667 106.937 C 253.667 107.178,253.765 107.333,253.917 107.333 C 254.102 107.333,254.167 107.528,254.167 108.083 C 254.167 108.639,254.231 108.833,254.417 108.833 C 254.597 108.833,254.667 109.019,254.667 109.500 C 254.667 109.867,254.742 110.167,254.833 110.167 C 254.925 110.167,255.000 110.357,255.000 110.589 C 255.000 110.821,255.112 111.054,255.250 111.106 C 255.413 111.169,255.500 111.429,255.500 111.856 C 255.500 112.284,255.587 112.544,255.750 112.606 C 255.887 112.659,256.000 112.807,256.000 112.934 C 256.000 113.062,255.887 113.167,255.750 113.167 C 255.593 113.167,255.500 113.325,255.500 113.595 C 255.500 113.831,255.387 114.136,255.250 114.274 C 255.112 114.411,255.000 114.743,255.000 115.012 C 255.000 115.280,254.925 115.500,254.833 115.500 C 254.742 115.500,254.667 115.800,254.667 116.167 C 254.667 116.648,254.597 116.833,254.417 116.833 C 254.249 116.833,254.167 117.001,254.167 117.339 C 254.167 117.634,254.063 117.884,253.917 117.940 C 253.742 118.007,253.667 118.280,253.667 118.851 L 253.667 119.667 255.665 119.667 C 258.001 119.667,258.333 119.517,258.333 118.463 C 258.333 118.014,258.405 117.833,258.583 117.833 C 258.748 117.833,258.833 117.669,258.833 117.351 C 258.833 117.076,258.941 116.828,259.083 116.773 C 259.238 116.714,259.333 116.460,259.333 116.106 C 259.333 115.753,259.428 115.499,259.583 115.440 C 259.748 115.376,259.833 115.115,259.833 114.672 C 259.833 114.186,259.902 114.000,260.083 114.000 C 260.250 114.000,260.333 113.833,260.333 113.500 C 260.333 113.225,260.408 113.000,260.500 113.000 C 260.592 113.000,260.667 112.700,260.667 112.333 C 260.667 111.852,260.736 111.667,260.917 111.667 C 261.102 111.667,261.167 111.472,261.167 110.917 C 261.167 110.361,261.231 110.167,261.417 110.167 C 261.573 110.167,261.667 110.009,261.667 109.745 C 261.667 109.513,261.779 109.280,261.917 109.227 C 262.078 109.165,262.167 108.907,262.167 108.500 C 262.167 108.093,262.255 107.835,262.417 107.773 C 262.572 107.714,262.667 107.460,262.667 107.106 C 262.667 106.753,262.762 106.499,262.917 106.440 C 263.054 106.387,263.167 106.158,263.167 105.932 C 263.167 105.705,263.242 105.473,263.333 105.417 C 263.425 105.360,263.500 105.018,263.500 104.657 C 263.500 104.184,263.570 104.000,263.750 104.000 C 263.931 104.000,264.000 103.815,264.000 103.333 C 264.000 102.852,264.069 102.667,264.250 102.667 C 264.415 102.667,264.500 102.502,264.500 102.184 C 264.500 101.910,264.607 101.661,264.750 101.606 C 264.905 101.547,265.000 101.293,265.000 100.940 C 265.000 100.586,265.095 100.332,265.250 100.273 C 265.415 100.210,265.500 99.949,265.500 99.505 C 265.500 99.019,265.569 98.833,265.750 98.833 C 265.917 98.833,266.000 98.667,266.000 98.333 C 266.000 98.058,266.072 97.833,266.159 97.833 C 266.375 97.833,266.559 96.781,266.420 96.343 C 266.312 96.004,266.223 95.992,264.029 96.037 L 261.750 96.083 261.696 96.750 C 261.666 97.117,261.535 97.477,261.404 97.550 C 261.271 97.624,261.167 97.933,261.167 98.248 C 261.167 98.559,261.092 98.860,261.000 98.917 C 260.908 98.973,260.833 99.315,260.833 99.677 C 260.833 100.149,260.763 100.333,260.583 100.333 C 260.404 100.333,260.333 100.517,260.333 100.982 C 260.333 101.405,260.246 101.664,260.083 101.727 C 259.920 101.790,259.833 102.049,259.833 102.477 C 259.833 102.905,259.747 103.164,259.583 103.227 C 259.418 103.290,259.333 103.551,259.333 103.995 C 259.333 104.481,259.264 104.667,259.083 104.667 C 258.906 104.667,258.832 104.850,258.828 105.292 C 258.825 105.635,258.713 106.062,258.578 106.240 C 258.443 106.418,258.333 106.774,258.333 107.032 C 258.333 107.337,258.246 107.500,258.083 107.500 C 257.898 107.500,257.833 107.306,257.833 106.750 C 257.833 106.194,257.769 106.000,257.583 106.000 C 257.403 106.000,257.333 105.815,257.333 105.333 C 257.333 104.967,257.258 104.667,257.167 104.667 C 257.075 104.667,257.000 104.364,257.000 103.995 C 257.000 103.551,256.915 103.290,256.750 103.227 C 256.581 103.162,256.500 102.897,256.500 102.411 C 256.500 101.993,256.395 101.586,256.250 101.440 C 256.112 101.303,256.000 100.920,256.000 100.590 C 256.000 100.210,255.908 99.954,255.750 99.894 C 255.587 99.831,255.500 99.572,255.500 99.149 C 255.500 98.683,255.429 98.500,255.250 98.500 C 255.065 98.500,255.000 98.306,255.000 97.750 C 255.000 97.194,254.935 97.000,254.750 97.000 C 254.583 97.000,254.500 96.833,254.500 96.500 L 254.500 96.000 252.278 96.000 C 251.056 96.000,250.006 96.050,249.944 96.111 M269.440 96.250 C 269.303 96.388,269.033 96.500,268.840 96.500 C 268.647 96.500,268.446 96.612,268.394 96.750 C 268.341 96.888,268.193 97.000,268.066 97.000 C 267.938 97.000,267.833 97.079,267.833 97.175 C 267.833 97.271,267.646 97.523,267.417 97.735 C 267.175 97.959,267.000 98.306,267.000 98.561 C 267.000 98.840,266.909 99.000,266.750 99.000 C 266.543 99.000,266.500 99.315,266.500 100.833 C 266.500 102.352,266.543 102.667,266.750 102.667 C 266.897 102.667,267.002 102.822,267.005 103.042 C 267.011 103.472,267.363 104.000,267.643 104.000 C 267.748 104.000,267.833 104.112,267.833 104.250 C 267.833 104.388,267.946 104.500,268.083 104.500 C 268.221 104.500,268.333 104.612,268.333 104.750 C 268.333 104.917,268.500 105.000,268.833 105.000 C 269.167 105.000,269.333 105.083,269.333 105.250 C 269.333 105.417,269.500 105.500,269.833 105.500 C 270.167 105.500,270.333 105.583,270.333 105.750 C 270.333 105.902,270.488 106.000,270.730 106.000 C 270.948 106.000,271.219 106.112,271.333 106.250 C 271.447 106.388,271.682 106.500,271.854 106.500 C 272.026 106.500,272.167 106.567,272.167 106.649 C 272.167 106.730,272.363 106.847,272.603 106.907 C 273.082 107.027,273.500 107.375,273.500 107.655 C 273.500 107.753,273.612 107.833,273.750 107.833 C 274.156 107.833,274.047 108.639,273.583 109.069 C 273.354 109.281,273.167 109.540,273.167 109.644 C 273.167 109.757,272.865 109.833,272.417 109.833 C 271.861 109.833,271.667 109.898,271.667 110.083 C 271.667 110.221,271.554 110.333,271.417 110.333 C 271.279 110.333,271.167 110.221,271.167 110.083 C 271.167 109.891,270.953 109.833,270.245 109.833 C 269.579 109.833,269.296 109.764,269.227 109.583 C 269.174 109.446,268.960 109.333,268.750 109.333 C 268.540 109.333,268.326 109.221,268.273 109.083 C 268.041 108.478,267.000 109.159,267.000 109.917 C 267.000 110.176,266.906 110.333,266.750 110.333 C 266.594 110.333,266.500 110.491,266.500 110.755 C 266.500 110.987,266.387 111.220,266.250 111.273 C 265.766 111.459,265.921 112.667,266.429 112.667 C 266.664 112.667,266.970 112.779,267.107 112.917 C 267.245 113.054,267.572 113.167,267.835 113.167 C 268.098 113.167,268.360 113.242,268.417 113.333 C 268.545 113.541,274.500 113.562,274.500 113.355 C 274.500 113.275,274.800 113.161,275.167 113.103 C 275.533 113.044,275.833 112.922,275.833 112.831 C 275.833 112.741,275.946 112.667,276.083 112.667 C 276.221 112.667,276.333 112.564,276.333 112.438 C 276.333 112.311,276.558 112.163,276.833 112.108 C 277.230 112.029,277.333 111.922,277.333 111.587 C 277.333 111.325,277.427 111.167,277.583 111.167 C 277.750 111.167,277.833 111.000,277.833 110.667 C 277.833 110.333,277.917 110.167,278.083 110.167 C 278.290 110.167,278.333 109.852,278.333 108.333 C 278.333 106.815,278.290 106.500,278.083 106.500 C 277.917 106.500,277.833 106.333,277.833 106.000 C 277.833 105.667,277.750 105.500,277.583 105.500 C 277.428 105.500,277.333 105.343,277.333 105.083 C 277.333 104.731,277.256 104.667,276.833 104.667 C 276.500 104.667,276.333 104.583,276.333 104.417 C 276.333 104.279,276.221 104.167,276.083 104.167 C 275.946 104.167,275.833 104.054,275.833 103.917 C 275.833 103.736,275.648 103.667,275.167 103.667 C 274.685 103.667,274.500 103.597,274.500 103.417 C 274.500 103.250,274.333 103.167,274.000 103.167 C 273.667 103.167,273.500 103.083,273.500 102.917 C 273.500 102.752,273.335 102.667,273.018 102.667 C 272.743 102.667,272.494 102.559,272.440 102.417 C 272.387 102.279,272.225 102.167,272.081 102.167 C 271.936 102.167,271.644 101.979,271.431 101.750 C 271.219 101.521,270.960 101.333,270.856 101.333 C 270.752 101.333,270.667 101.183,270.667 101.000 C 270.667 100.815,270.778 100.667,270.917 100.667 C 271.072 100.667,271.167 100.509,271.167 100.250 C 271.167 99.991,271.261 99.833,271.417 99.833 C 271.554 99.833,271.667 99.721,271.667 99.583 C 271.667 99.381,271.933 99.333,273.066 99.333 C 274.155 99.333,274.486 99.389,274.560 99.583 C 274.613 99.721,274.814 99.833,275.007 99.833 C 275.199 99.833,275.470 99.946,275.607 100.083 C 276.084 100.560,276.833 100.407,276.833 99.833 C 276.833 99.500,276.917 99.333,277.083 99.333 C 277.250 99.333,277.333 99.167,277.333 98.833 C 277.333 98.500,277.417 98.333,277.583 98.333 C 277.764 98.333,277.833 98.148,277.833 97.667 C 277.833 97.185,277.764 97.000,277.583 97.000 C 277.446 97.000,277.333 96.888,277.333 96.750 C 277.333 96.593,277.175 96.500,276.905 96.500 C 276.669 96.500,276.364 96.388,276.226 96.250 C 276.022 96.045,275.405 96.000,272.833 96.000 C 270.262 96.000,269.645 96.045,269.440 96.250 M293.167 96.250 C 293.053 96.388,292.818 96.500,292.646 96.500 C 292.315 96.500,291.667 97.052,291.667 97.333 C 291.667 97.425,291.554 97.500,291.417 97.500 C 291.279 97.500,291.167 97.612,291.167 97.750 C 291.167 97.888,291.054 98.000,290.917 98.000 C 290.779 98.000,290.667 98.112,290.667 98.250 C 290.667 98.388,290.592 98.500,290.500 98.500 C 290.217 98.500,289.667 99.149,289.667 99.482 C 289.667 99.656,289.554 99.841,289.417 99.894 C 289.279 99.946,289.167 100.179,289.167 100.411 C 289.167 100.643,289.092 100.833,289.000 100.833 C 288.894 100.833,288.833 102.194,288.833 104.583 C 288.833 106.972,288.894 108.333,289.000 108.333 C 289.092 108.333,289.167 108.587,289.167 108.896 C 289.167 109.206,289.272 109.546,289.400 109.653 C 289.529 109.760,289.680 110.031,289.737 110.257 C 289.793 110.482,289.913 110.667,290.003 110.667 C 290.093 110.667,290.167 110.779,290.167 110.917 C 290.167 111.054,290.279 111.167,290.417 111.167 C 290.554 111.167,290.667 111.279,290.667 111.417 C 290.667 111.554,290.771 111.667,290.899 111.667 C 291.027 111.667,291.174 111.779,291.227 111.917 C 291.280 112.054,291.467 112.167,291.644 112.167 C 291.820 112.167,292.008 112.279,292.060 112.417 C 292.113 112.554,292.239 112.667,292.340 112.667 C 292.441 112.667,292.636 112.779,292.774 112.917 C 292.911 113.054,293.239 113.167,293.502 113.167 C 293.765 113.167,294.027 113.242,294.083 113.333 C 294.146 113.435,295.418 113.500,297.343 113.500 C 299.337 113.500,300.500 113.439,300.500 113.333 C 300.500 113.242,300.796 113.167,301.158 113.167 C 301.549 113.167,301.871 113.072,301.950 112.933 C 302.023 112.804,302.271 112.673,302.500 112.641 C 303.018 112.569,303.242 110.916,302.759 110.730 C 302.604 110.671,302.500 110.429,302.500 110.131 C 302.500 109.302,301.469 108.453,301.227 109.083 C 301.172 109.226,300.924 109.333,300.649 109.333 C 300.331 109.333,300.167 109.419,300.167 109.583 C 300.167 109.785,299.907 109.833,298.828 109.833 C 297.792 109.833,297.468 109.890,297.394 110.083 C 297.341 110.221,297.193 110.333,297.066 110.333 C 296.938 110.333,296.833 110.221,296.833 110.083 C 296.833 109.889,296.611 109.833,295.833 109.833 C 295.056 109.833,294.833 109.778,294.833 109.583 C 294.833 109.446,294.721 109.333,294.583 109.333 C 294.446 109.333,294.332 109.277,294.331 109.208 C 294.330 109.140,294.030 108.761,293.665 108.368 C 293.156 107.820,293.000 107.517,293.000 107.076 L 293.000 106.500 294.167 106.500 C 295.093 106.500,295.333 106.448,295.333 106.250 C 295.333 106.044,295.630 106.000,297.000 106.000 C 298.370 106.000,298.667 105.956,298.667 105.750 C 298.667 105.544,298.963 105.500,300.333 105.500 C 301.704 105.500,302.000 105.456,302.000 105.250 C 302.000 105.065,302.194 105.000,302.750 105.000 L 303.500 105.000 303.500 102.995 C 303.500 101.366,303.453 100.972,303.250 100.894 C 303.087 100.831,303.000 100.571,303.000 100.144 C 303.000 99.716,302.913 99.456,302.750 99.394 C 302.612 99.341,302.500 99.118,302.500 98.899 C 302.500 98.655,302.403 98.500,302.250 98.500 C 302.112 98.500,302.000 98.388,302.000 98.250 C 302.000 98.112,301.887 98.000,301.750 98.000 C 301.612 98.000,301.500 97.888,301.500 97.750 C 301.500 97.612,301.387 97.500,301.250 97.500 C 301.112 97.500,301.000 97.388,301.000 97.250 C 301.000 97.112,300.896 97.000,300.768 97.000 C 300.640 97.000,300.492 96.888,300.440 96.750 C 300.387 96.612,300.201 96.500,300.026 96.500 C 299.851 96.500,299.614 96.388,299.500 96.250 C 299.330 96.045,298.760 96.000,296.333 96.000 C 293.906 96.000,293.337 96.045,293.167 96.250 M306.940 96.250 C 306.803 96.388,306.420 96.500,306.090 96.500 C 305.710 96.500,305.454 96.592,305.394 96.750 C 305.341 96.888,305.192 97.000,305.064 97.000 C 304.866 97.000,304.837 98.232,304.873 105.042 L 304.917 113.083 307.000 113.083 L 309.083 113.083 309.127 106.458 C 309.170 99.937,309.176 99.833,309.507 99.833 C 309.692 99.833,309.887 99.721,309.940 99.583 C 310.010 99.401,310.297 99.333,311.000 99.333 C 311.703 99.333,311.990 99.401,312.060 99.583 C 312.113 99.721,312.314 99.833,312.508 99.833 C 312.701 99.833,313.077 100.052,313.344 100.318 L 313.829 100.804 313.873 106.943 L 313.917 113.083 316.042 113.130 L 318.167 113.177 318.167 106.755 C 318.167 101.158,318.199 100.333,318.417 100.333 C 318.554 100.333,318.667 100.221,318.667 100.083 C 318.667 99.908,318.843 99.833,319.255 99.833 C 319.625 99.833,319.880 99.740,319.940 99.583 C 320.004 99.415,320.269 99.333,320.750 99.333 C 321.231 99.333,321.496 99.415,321.560 99.583 C 321.613 99.721,321.846 99.833,322.078 99.833 C 322.342 99.833,322.500 99.927,322.500 100.083 C 322.500 100.221,322.612 100.333,322.750 100.333 C 322.887 100.333,323.000 100.446,323.000 100.583 C 323.000 100.721,323.074 100.833,323.165 100.833 C 323.269 100.833,323.345 103.067,323.373 106.958 L 323.417 113.083 325.500 113.083 L 327.583 113.083 327.627 106.287 C 327.665 100.351,327.639 99.479,327.419 99.394 C 327.280 99.341,327.167 99.118,327.167 98.899 C 327.167 98.655,327.069 98.500,326.917 98.500 C 326.750 98.500,326.667 98.333,326.667 98.000 C 326.667 97.667,326.583 97.500,326.417 97.500 C 326.279 97.500,326.167 97.388,326.167 97.250 C 326.167 97.094,326.009 97.000,325.750 97.000 C 325.491 97.000,325.333 96.906,325.333 96.750 C 325.333 96.612,325.230 96.500,325.104 96.500 C 324.977 96.500,324.781 96.388,324.667 96.250 C 324.496 96.044,323.915 96.000,321.391 96.000 C 318.818 96.000,318.307 96.040,318.227 96.250 C 318.168 96.403,317.915 96.500,317.574 96.500 C 317.233 96.500,316.958 96.605,316.865 96.771 C 316.782 96.920,316.505 97.042,316.250 97.042 C 315.995 97.042,315.718 96.920,315.635 96.771 C 315.541 96.602,315.266 96.500,314.908 96.500 C 314.508 96.500,314.333 96.424,314.333 96.250 C 314.333 96.036,313.825 96.000,310.762 96.000 C 307.810 96.000,307.147 96.043,306.940 96.250 M297.833 99.583 C 297.833 99.721,297.946 99.833,298.083 99.833 C 298.221 99.833,298.333 99.946,298.333 100.083 C 298.333 100.221,298.407 100.333,298.497 100.333 C 298.587 100.333,298.707 100.521,298.765 100.750 C 298.822 100.979,298.936 101.167,299.018 101.167 C 299.100 101.167,299.167 101.504,299.167 101.917 L 299.167 102.667 297.592 102.667 C 296.401 102.667,295.984 102.725,295.883 102.904 C 295.786 103.078,295.315 103.156,294.125 103.196 L 292.499 103.250 292.500 102.708 C 292.500 102.338,292.579 102.167,292.750 102.167 C 292.917 102.167,293.000 102.000,293.000 101.667 C 293.000 101.333,293.083 101.167,293.250 101.167 C 293.406 101.167,293.500 101.009,293.500 100.750 C 293.500 100.491,293.594 100.333,293.750 100.333 C 293.887 100.333,294.000 100.221,294.000 100.083 C 294.000 99.928,294.157 99.833,294.417 99.833 C 294.676 99.833,294.833 99.739,294.833 99.583 C 294.833 99.380,295.111 99.333,296.333 99.333 C 297.556 99.333,297.833 99.380,297.833 99.583 M193.333 101.083 C 193.333 101.275,193.120 101.333,192.417 101.333 C 191.912 101.333,191.500 101.408,191.500 101.500 C 191.500 101.592,191.339 101.667,191.142 101.667 C 190.781 101.667,189.667 102.667,189.667 102.992 C 189.667 103.088,189.554 103.167,189.417 103.167 C 189.279 103.167,189.167 103.279,189.167 103.417 C 189.167 103.554,189.054 103.667,188.917 103.667 C 188.750 103.667,188.667 103.833,188.667 104.167 C 188.667 104.500,188.583 104.667,188.417 104.667 C 188.206 104.667,188.167 105.047,188.167 107.089 C 188.167 109.088,188.210 109.527,188.417 109.606 C 188.554 109.659,188.667 109.884,188.667 110.106 C 188.667 110.329,188.779 110.554,188.917 110.606 C 189.054 110.659,189.167 110.807,189.167 110.934 C 189.167 111.062,189.279 111.167,189.417 111.167 C 189.554 111.167,189.667 111.254,189.667 111.360 C 189.667 111.766,190.902 112.666,191.458 112.667 C 191.829 112.667,192.000 112.746,192.000 112.917 C 192.000 113.125,192.334 113.167,194.005 113.167 C 195.634 113.167,196.028 113.120,196.106 112.917 C 196.161 112.774,196.410 112.667,196.684 112.667 C 197.002 112.667,197.167 112.581,197.167 112.417 C 197.167 112.268,197.320 112.167,197.546 112.167 C 197.918 112.167,198.500 111.657,198.500 111.331 C 198.500 111.241,198.612 111.167,198.750 111.167 C 198.887 111.167,199.000 111.062,199.000 110.934 C 199.000 110.807,199.112 110.659,199.250 110.606 C 199.387 110.554,199.500 110.329,199.500 110.106 C 199.500 109.884,199.612 109.659,199.750 109.606 C 199.956 109.527,200.000 109.088,200.000 107.089 C 200.000 105.047,199.961 104.667,199.750 104.667 C 199.583 104.667,199.500 104.500,199.500 104.167 C 199.500 103.833,199.417 103.667,199.250 103.667 C 199.112 103.667,199.000 103.554,199.000 103.417 C 199.000 103.279,198.887 103.167,198.750 103.167 C 198.612 103.167,198.500 103.088,198.500 102.992 C 198.500 102.667,197.386 101.667,197.025 101.667 C 196.828 101.667,196.667 101.592,196.667 101.500 C 196.667 101.408,196.254 101.333,195.750 101.333 C 195.046 101.333,194.833 101.275,194.833 101.083 C 194.833 100.898,194.639 100.833,194.083 100.833 C 193.528 100.833,193.333 100.898,193.333 101.083 M195.394 103.417 C 195.475 103.627,195.254 103.667,193.988 103.667 C 192.684 103.667,192.515 103.635,192.702 103.423 C 193.011 103.072,195.259 103.067,195.394 103.417 M191.500 107.095 C 191.500 109.402,191.472 109.663,191.250 109.440 C 191.112 109.303,191.000 109.110,191.000 109.012 C 191.000 108.914,190.887 108.833,190.750 108.833 C 190.545 108.833,190.500 108.539,190.500 107.184 C 190.500 105.873,190.551 105.516,190.750 105.440 C 190.887 105.387,191.000 105.154,191.000 104.922 C 191.000 104.658,191.094 104.500,191.250 104.500 C 191.462 104.500,191.500 104.899,191.500 107.095 M193.940 105.250 C 193.992 105.388,194.215 105.500,194.434 105.500 C 194.678 105.500,194.833 105.597,194.833 105.750 C 194.833 105.935,194.639 106.000,194.083 106.000 C 193.361 106.000,193.333 105.981,193.333 105.500 C 193.333 104.964,193.762 104.787,193.940 105.250 M197.667 107.184 C 197.667 108.539,197.622 108.833,197.417 108.833 C 197.279 108.833,197.167 108.946,197.167 109.083 C 197.167 109.221,197.054 109.333,196.917 109.333 C 196.779 109.333,196.667 109.221,196.667 109.083 C 196.667 108.946,196.563 108.833,196.436 108.833 C 196.308 108.833,196.175 108.627,196.139 108.375 C 196.057 107.793,196.147 107.333,196.344 107.333 C 196.778 107.333,197.167 106.728,197.167 106.052 C 197.167 105.491,197.219 105.364,197.417 105.440 C 197.616 105.516,197.667 105.873,197.667 107.184 M193.833 108.755 C 193.833 108.987,193.946 109.220,194.083 109.273 C 194.221 109.326,194.333 109.473,194.333 109.601 C 194.333 109.729,194.437 109.833,194.564 109.833 C 194.792 109.833,194.996 110.595,194.870 110.973 C 194.792 111.207,193.384 111.235,193.306 111.004 C 193.138 110.512,193.375 108.333,193.597 108.333 C 193.739 108.333,193.833 108.502,193.833 108.755 " stroke="none" fill="#146cb4" fill-rule="evenodd"></path><path id="path4" d="M154.934 63.814 C 154.596 64.188,154.504 66.904,154.819 67.219 C 154.918 67.318,155.000 67.567,155.000 67.771 C 155.000 67.976,155.112 68.255,155.250 68.393 C 155.387 68.530,155.500 68.704,155.500 68.780 C 155.501 69.011,156.745 70.333,156.962 70.333 C 157.075 70.333,157.167 70.407,157.167 70.497 C 157.167 70.587,157.373 70.710,157.625 70.770 C 157.877 70.830,158.188 70.963,158.317 71.065 C 158.465 71.182,159.756 71.270,161.837 71.304 L 165.123 71.358 165.040 72.137 C 164.994 72.566,164.889 73.002,164.806 73.107 C 164.723 73.212,164.610 73.700,164.555 74.191 C 164.499 74.682,164.398 75.158,164.329 75.250 C 164.260 75.342,164.150 75.829,164.083 76.333 C 164.017 76.837,163.905 77.325,163.835 77.417 C 163.716 77.572,163.569 78.234,163.154 80.480 C 163.063 80.973,162.916 81.512,162.828 81.677 C 162.739 81.843,162.664 82.227,162.661 82.531 C 162.658 82.835,162.548 83.271,162.417 83.500 C 162.286 83.729,162.173 84.217,162.167 84.583 C 162.160 84.950,162.048 85.438,161.917 85.667 C 161.786 85.896,161.676 86.387,161.673 86.758 C 161.669 87.130,161.592 87.508,161.502 87.598 C 161.411 87.689,161.292 88.135,161.238 88.590 C 161.184 89.045,161.074 89.567,160.993 89.750 C 160.851 90.070,160.673 90.880,160.319 92.813 C 160.229 93.306,160.083 93.845,159.994 94.011 C 159.906 94.176,159.833 94.612,159.833 94.979 C 159.833 95.346,159.758 95.693,159.667 95.750 C 159.300 95.976,159.487 96.657,159.947 96.773 C 160.692 96.959,163.941 96.070,164.139 95.625 C 164.169 95.556,164.266 95.500,164.354 95.500 C 164.847 95.500,167.667 92.865,167.667 92.405 C 167.667 92.274,167.740 92.167,167.829 92.167 C 168.013 92.167,168.667 90.816,168.667 90.436 C 168.667 90.299,168.742 90.140,168.833 90.083 C 168.925 90.027,169.000 89.720,169.000 89.401 C 169.000 89.083,169.112 88.553,169.250 88.224 C 169.387 87.895,169.503 87.391,169.506 87.105 C 169.509 86.818,169.619 86.396,169.750 86.167 C 169.881 85.938,169.991 85.478,169.994 85.145 C 169.997 84.813,170.112 84.271,170.250 83.942 C 170.387 83.613,170.500 83.088,170.500 82.774 C 170.500 82.461,170.612 81.990,170.749 81.727 C 170.886 81.465,170.998 80.973,170.999 80.635 C 171.000 80.296,171.065 79.980,171.143 79.931 C 171.222 79.882,171.335 79.488,171.395 79.054 C 171.454 78.620,171.572 78.037,171.658 77.758 C 171.743 77.479,171.894 76.875,171.995 76.417 C 172.095 75.958,172.291 75.133,172.429 74.583 C 172.568 74.033,172.747 73.186,172.827 72.700 C 173.069 71.239,172.633 71.333,179.167 71.333 C 185.649 71.333,185.203 71.425,185.524 70.033 C 185.951 68.185,184.020 64.333,182.667 64.333 C 182.499 64.333,182.335 64.254,182.303 64.158 C 182.075 63.476,155.541 63.143,154.934 63.814 M67.698 63.808 C 67.486 63.868,72.957 63.917,79.857 63.917 L 92.401 63.917 92.517 64.333 C 92.583 64.568,92.641 64.629,92.650 64.472 C 92.701 63.619,93.422 63.665,80.274 63.683 C 73.569 63.692,67.910 63.749,67.698 63.808 M66.000 64.250 C 65.453 64.563,65.807 64.567,66.523 64.257 C 66.910 64.088,66.980 64.013,66.750 64.012 C 66.567 64.012,66.229 64.119,66.000 64.250 M181.905 64.291 C 184.086 65.067,185.372 67.444,185.058 70.117 L 184.956 70.988 178.991 71.036 C 175.711 71.062,172.974 71.137,172.909 71.202 C 172.844 71.267,172.732 71.604,172.661 71.952 C 172.589 72.299,172.405 73.108,172.251 73.750 C 172.097 74.392,171.866 75.385,171.736 75.958 C 171.606 76.531,171.394 77.469,171.264 78.042 C 171.134 78.615,170.902 79.608,170.748 80.250 C 170.593 80.892,170.409 81.717,170.339 82.083 C 170.212 82.743,169.999 83.632,169.582 85.250 C 169.463 85.708,169.240 86.683,169.086 87.417 C 167.940 92.859,165.169 95.939,161.106 96.287 L 159.962 96.385 160.048 95.651 C 160.095 95.247,160.254 94.429,160.401 93.833 C 160.548 93.237,160.748 92.337,160.845 91.833 C 160.942 91.329,161.090 90.692,161.174 90.417 C 161.257 90.142,161.555 88.867,161.835 87.583 C 162.115 86.300,162.429 84.950,162.532 84.583 C 162.635 84.217,162.776 83.617,162.846 83.250 C 162.916 82.883,163.057 82.246,163.158 81.833 C 163.260 81.421,163.458 80.558,163.598 79.917 C 163.738 79.275,163.918 78.487,163.998 78.167 C 164.197 77.366,164.588 75.665,164.917 74.167 C 165.068 73.479,165.293 72.556,165.417 72.116 C 165.717 71.047,165.577 71.001,162.031 70.998 C 159.071 70.995,158.420 70.875,157.197 70.103 C 155.616 69.104,154.664 66.768,155.047 64.828 L 155.211 64.000 168.147 63.999 C 180.059 63.998,181.148 64.022,181.905 64.291 M64.833 64.790 C 63.576 65.611,62.556 66.502,61.902 67.352 C 60.917 68.632,60.961 68.778,61.958 67.540 C 62.888 66.387,63.604 65.741,64.750 65.026 C 65.208 64.740,65.508 64.509,65.417 64.512 C 65.325 64.515,65.063 64.640,64.833 64.790 M92.157 65.270 C 91.498 66.942,90.530 68.247,89.191 69.269 C 88.784 69.580,88.540 69.833,88.648 69.833 C 89.407 69.833,92.869 65.313,92.439 64.884 C 92.388 64.832,92.261 65.006,92.157 65.270 M87.167 70.417 C 86.925 70.555,86.855 70.655,87.000 70.655 C 87.138 70.656,87.396 70.546,87.574 70.411 C 87.985 70.100,87.714 70.104,87.167 70.417 M85.946 70.776 C 85.886 70.836,85.555 70.940,85.210 71.007 C 84.648 71.116,84.635 71.129,85.083 71.135 C 85.673 71.142,86.956 70.700,86.403 70.679 C 86.212 70.672,86.006 70.716,85.946 70.776 M60.027 71.759 C 59.907 72.275,59.844 72.732,59.886 72.775 C 59.989 72.878,60.380 71.223,60.305 70.998 C 60.272 70.900,60.147 71.243,60.027 71.759 M67.599 71.308 C 67.551 71.385,67.474 71.779,67.427 72.183 L 67.341 72.917 67.522 72.167 C 67.621 71.754,67.788 71.362,67.893 71.294 C 68.033 71.204,68.031 71.171,67.885 71.169 C 67.776 71.168,67.647 71.230,67.599 71.308 M59.524 73.940 C 59.406 74.449,59.340 74.895,59.378 74.933 C 59.415 74.971,59.545 74.589,59.667 74.083 C 59.788 73.578,59.854 73.131,59.813 73.091 C 59.772 73.050,59.642 73.432,59.524 73.940 M67.120 73.222 C 66.921 73.729,66.968 74.155,67.183 73.786 C 67.278 73.623,67.330 73.361,67.298 73.203 C 67.245 72.942,67.230 72.943,67.120 73.222 M66.777 74.750 C 66.709 75.117,66.637 75.642,66.618 75.917 L 66.583 76.417 75.947 76.460 C 85.168 76.502,85.312 76.508,85.386 76.837 C 85.448 77.113,85.457 77.106,85.439 76.794 L 85.417 76.417 76.042 76.374 C 68.330 76.338,66.667 76.291,66.667 76.107 C 66.667 75.984,66.747 75.651,66.846 75.368 C 66.945 75.085,66.998 74.680,66.964 74.468 C 66.918 74.180,66.871 74.250,66.777 74.750 M59.013 76.179 C 58.894 76.642,58.829 77.051,58.868 77.090 C 58.907 77.129,59.035 76.783,59.154 76.321 C 59.272 75.858,59.337 75.449,59.299 75.410 C 59.260 75.371,59.131 75.717,59.013 76.179 M58.542 78.191 C 58.255 79.430,58.299 79.792,58.600 78.673 C 58.734 78.173,58.823 77.657,58.797 77.527 C 58.771 77.396,58.656 77.695,58.542 78.191 M84.270 79.398 C 83.746 80.292,82.357 81.680,81.292 82.374 C 80.857 82.657,80.531 82.920,80.569 82.958 C 80.721 83.110,81.999 82.152,83.181 81.000 C 83.859 80.340,85.006 78.667,84.782 78.667 C 84.736 78.667,84.506 78.996,84.270 79.398 M57.994 80.612 C 57.882 81.146,57.688 81.953,57.562 82.405 C 57.436 82.857,57.338 83.382,57.343 83.572 C 57.353 83.891,57.643 82.869,58.159 80.698 C 58.275 80.212,58.330 79.775,58.283 79.727 C 58.235 79.680,58.105 80.078,57.994 80.612 M79.583 83.256 C 79.308 83.382,79.196 83.486,79.333 83.487 C 79.471 83.487,79.771 83.381,80.000 83.250 C 80.527 82.949,80.245 82.953,79.583 83.256 M78.083 83.667 C 77.900 83.745,74.853 83.815,71.312 83.822 C 64.298 83.834,64.630 83.786,64.441 84.833 C 64.383 85.154,64.287 85.642,64.228 85.917 C 64.169 86.192,64.172 86.370,64.233 86.313 C 64.295 86.257,64.443 85.732,64.562 85.147 L 64.779 84.083 71.514 83.999 C 76.175 83.940,78.378 83.853,78.667 83.718 C 79.181 83.475,78.639 83.428,78.083 83.667 M56.997 84.945 C 56.888 85.480,56.731 86.134,56.649 86.400 C 56.567 86.666,56.505 87.003,56.512 87.150 C 56.518 87.297,56.619 87.079,56.737 86.667 C 57.134 85.272,57.370 84.147,57.283 84.061 C 57.235 84.013,57.107 84.411,56.997 84.945 M63.763 87.884 C 62.944 91.489,62.072 92.983,59.667 94.900 L 59.083 95.365 59.750 94.907 C 61.432 93.752,62.755 92.031,63.296 90.294 C 63.732 88.897,64.241 86.685,64.148 86.592 C 64.107 86.552,63.934 87.133,63.763 87.884 M56.296 87.917 C 55.999 89.282,55.992 89.427,56.254 88.750 C 56.396 88.383,56.488 87.933,56.458 87.750 C 56.417 87.499,56.377 87.540,56.296 87.917 M55.782 90.125 C 55.512 91.391,55.502 91.736,55.758 90.944 C 55.901 90.500,55.991 90.012,55.958 89.860 C 55.923 89.700,55.849 89.812,55.782 90.125 M55.167 92.833 C 55.054 93.302,54.995 93.717,55.034 93.756 C 55.073 93.795,55.202 93.449,55.321 92.987 C 55.439 92.525,55.499 92.110,55.453 92.064 C 55.408 92.019,55.279 92.365,55.167 92.833 M54.762 94.595 C 54.701 94.839,54.688 95.077,54.734 95.123 C 54.780 95.168,54.867 95.006,54.929 94.762 C 54.990 94.518,55.003 94.280,54.957 94.234 C 54.911 94.189,54.823 94.351,54.762 94.595 M54.527 95.771 C 54.489 96.501,54.783 96.690,55.679 96.515 L 56.417 96.370 55.552 96.352 C 54.706 96.334,54.686 96.322,54.621 95.792 L 54.553 95.250 54.527 95.771 M57.083 96.089 C 56.808 96.215,56.696 96.318,56.833 96.318 C 56.971 96.318,57.308 96.215,57.583 96.089 C 57.858 95.963,57.971 95.860,57.833 95.860 C 57.696 95.860,57.358 95.963,57.083 96.089 " stroke="none" fill="#74c679" fill-rule="evenodd"></path></g></svg>